<svg version="1.1" viewBox="0.0 0.0 1451.0 897.0" fill="none" stroke="none" stroke-linecap="square" stroke-miterlimit="10" width="1451" height="897" xmlns:xlink="http://www.w3.org/1999/xlink" xmlns="http://www.w3.org/2000/svg"><path fill="#ffffff" d="M0 0L1451.0 0L1451.0 897.0L0 897.0L0 0Z" fill-rule="nonzero"/><path fill="#15232c" d="M367.237 359.0433C417.66745 203.83437 562.30365 98.75 725.5 98.75L725.5 475.45Z" fill-rule="nonzero"/><path fill="#737c80" d="M435.24765 715.5676C353.04535 616.2021 327.38614 481.6917 367.237 359.0433L725.5 475.45Z" fill-rule="nonzero"/><path fill="#00b07c" d="M725.5 98.75C900.4078 98.75 1052.3069 219.14372 1092.2472 389.43024C1132.1875 559.71674 1049.661 735.0945 892.9941 812.8646C736.32715 890.63477 546.73804 850.33636 435.24765 715.5676L725.5 475.45Z" fill-rule="nonzero"/><path fill="#757575" d="M54.69375 173.88426Q55.06875 173.88426 55.303123 173.64989Q55.584373 173.36864 55.584373 172.99364Q55.584373 172.61864 55.303123 172.33739Q55.06875 172.10301 54.69375 172.10301Q54.31875 172.10301 54.084373 172.33739Q53.803123 172.61864 53.803123 172.99364Q53.803123 173.36864 54.084373 173.64989Q54.31875 173.88426 54.69375 173.88426ZM54.69375 174.16551Q54.178123 174.16551 53.85 173.83739Q53.521873 173.50926 53.521873 172.99364Q53.521873 172.47801 53.85 172.14989Q54.178123 171.82176 54.69375 171.82176Q55.209373 171.82176 55.5375 172.14989Q55.865623 172.47801 55.865623 172.99364Q55.865623 173.50926 55.5375 173.83739Q55.209373 174.16551 54.69375 174.16551ZM53.146873 174.96239Q51.084373 180.16551 46.35 181.52489Q46.06875 181.52489 46.25625 181.29051Q50.6625 179.74364 52.490623 174.58739Q52.584373 174.30614 52.35 174.30614Q51.31875 174.39989 47.053123 174.91551Q46.865623 174.96239 46.63125 175.14989Q46.584373 175.29051 46.44375 175.29051Q46.303123 175.29051 45.834373 174.86864Q45.459373 174.54051 45.4125 174.16551Q45.4125 173.93114 45.6 174.11864Q45.7875 174.44676 46.396873 174.44676Q46.771873 174.44676 51.975 174.02489Q52.5375 173.93114 52.678123 173.60301Q53.240623 173.88426 53.615623 174.25926Q53.85 174.49364 53.85 174.63426Q53.85 174.77489 53.521873 174.77489Q53.19375 174.77489 53.146873 174.96239ZM57.490623 181.89989Q61.38125 179.83739 63.209373 175.52489Q58.1 175.99364 57.81875 176.18114Q57.63125 176.36864 57.44375 176.36864Q57.25625 176.36864 56.7875 175.94676Q56.365623 175.57176 56.365623 175.19676Q56.365623 174.96239 56.553123 175.14989Q56.7875 175.57176 57.396873 175.57176Q58.56875 175.57176 63.021873 175.14989Q63.303123 175.05614 63.490623 174.82176Q63.959373 175.14989 64.19375 175.33739Q64.42812 175.52489 64.42812 175.66551Q64.42812 175.89989 63.9125 175.85301Q61.803123 180.30614 57.63125 182.08739Q57.35 182.08739 57.490623 181.89989ZM58.475 173.04051Q59.646873 173.04051 62.13125 172.85301Q62.365623 172.66551 62.69375 172.52489Q63.303123 172.71239 63.63125 172.99364Q63.81875 173.13426 63.81875 173.27489Q63.81875 173.36864 63.44375 173.32176Q62.13125 173.08739 58.709373 173.60301Q58.428123 173.83739 58.2875 173.83739Q58.053123 173.83739 57.678123 173.50926Q57.209373 173.08739 57.209373 172.66551Q57.209373 172.43114 57.396873 172.61864Q57.490623 173.04051 58.475 173.04051ZM67.1 178.29051Q66.86562 178.29051 66.77187 178.05614Q66.58437 177.54051 66.44375 177.35301Q66.1625 176.93114 65.55312 176.50926Q65.45937 176.41551 65.6 176.36864Q65.975 176.46239 66.44375 176.74364Q66.81875 176.97801 67.05312 177.21239Q67.42812 177.58739 67.38125 177.91551Q67.33437 178.29051 67.1 178.29051ZM69.44375 177.07176Q69.44375 177.39989 69.1625 177.39989Q68.92812 177.39989 68.83437 177.16551Q68.55312 176.50926 68.31875 176.22801Q68.08437 175.99364 67.56875 175.66551Q67.42812 175.52489 67.61562 175.52489Q68.17812 175.61864 68.74062 175.99364Q69.44375 176.46239 69.44375 177.07176ZM71.64687 175.61864Q72.06875 175.66551 72.35 175.85301Q73.00625 176.27489 73.00625 176.55614Q73.00625 176.64989 72.77187 176.64989Q72.5375 176.64989 72.39687 176.97801Q70.52187 180.96239 66.1625 182.36864Q65.88125 182.36864 66.06875 182.13426Q70.56875 180.30614 71.92812 176.27489Q72.02187 175.99364 71.55312 175.75926Q71.36562 175.66551 71.64687 175.61864ZM76.2875 176.08739Q76.85 176.13426 77.7875 176.36864Q78.9125 176.69676 79.56875 177.21239Q80.27187 177.77489 80.27187 178.14989Q80.27187 178.57176 79.94375 178.57176Q79.75625 178.57176 79.42812 178.14989Q78.49062 176.93114 76.2875 176.27489Q76.2875 180.68114 76.2875 181.47801Q76.2875 181.99364 76.05312 181.99364Q75.77187 181.99364 75.58437 181.57176Q75.44375 181.24364 75.63125 180.63426Q75.77187 179.04051 75.725 173.46239Q75.725 172.99364 75.58437 172.75926Q75.44375 172.57176 74.92812 172.52489Q74.74062 172.43114 74.92812 172.33739Q75.25625 172.24364 75.81875 172.38426Q76.19375 172.52489 76.475 172.71239Q76.75625 172.89989 76.75625 173.08739Q76.75625 173.22801 76.56875 173.27489Q76.38125 173.32176 76.38125 173.50926Q76.24062 174.72801 76.2875 176.08739ZM88.5375 173.97801Q87.55312 174.07176 83.80312 174.58739Q82.86562 174.72801 82.67812 174.91551Q82.63125 175.05614 82.49062 175.05614Q82.35 175.05614 81.88125 174.63426Q81.50625 174.30614 81.45937 173.93114Q81.45937 173.69676 81.64687 173.88426Q81.83437 174.21239 82.44375 174.21239Q83.24062 174.21239 88.35 173.64989Q88.725 173.60301 88.9125 173.27489Q89.38125 173.55614 89.85 173.93114Q90.08437 174.11864 90.08437 174.25926Q90.08437 174.44676 89.75625 174.44676Q89.42812 174.44676 89.33437 174.63426Q87.4125 179.41551 82.25625 181.24364Q82.02187 181.24364 82.1625 181.05614Q87.13125 178.89989 88.725 174.25926Q88.86562 173.93114 88.5375 173.97801ZM95.49062 174.35301Q96.1 174.30614 96.56875 174.63426Q96.85 174.82176 96.85 174.96239Q96.85 175.05614 96.75625 175.10301Q96.56875 175.24364 96.56875 175.47801Q96.56875 176.04051 96.56875 176.60301Q97.6 176.55614 98.63125 176.50926Q98.77187 176.46239 99.00625 176.27489Q99.38125 176.41551 99.75625 176.69676Q99.94375 176.83739 99.94375 177.02489Q99.94375 177.11864 99.61562 177.07176Q99.1 176.97801 98.35 176.93114Q97.45937 176.93114 96.56875 176.93114Q96.56875 178.43114 96.56875 179.93114Q96.6625 180.77489 96.6625 181.24364Q96.6625 181.66551 96.33437 181.94676Q96.1 182.13426 95.95937 182.13426Q95.81875 182.13426 95.77187 181.85301Q95.81875 181.66551 94.36562 180.54051Q94.13125 180.25926 94.45937 180.39989Q95.02187 180.72801 95.81875 181.14989Q96.00625 181.24364 96.05312 181.00926Q96.05312 179.32176 96.05312 177.63426Q94.4125 180.02489 91.17812 181.61864Q90.99062 181.61864 91.08437 181.43114Q94.36562 179.55614 95.77187 176.93114Q94.6 177.07176 93.52187 177.21239Q93.14687 177.25926 92.9125 177.44676Q92.86562 177.49364 92.67812 177.49364Q92.5375 177.49364 92.39687 177.39989Q92.02187 177.11864 91.7875 176.64989Q91.7875 176.41551 91.975 176.55614Q92.30312 176.83739 92.77187 176.83739Q94.0375 176.83739 96.05312 176.60301Q96.05312 175.99364 96.05312 175.14989Q96.05312 174.91551 95.9125 174.77489Q95.77187 174.63426 95.49062 174.58739Q95.20937 174.54051 95.49062 174.35301ZM110.50625 177.11864Q108.44375 177.07176 106.80312 177.11864Q105.49062 177.16551 103.99062 177.25926Q103.14687 177.30614 103.05312 177.39989Q102.86562 177.58739 102.725 177.58739Q102.67812 177.58739 102.39687 177.30614Q102.06875 176.97801 101.92812 176.69676Q101.69375 176.22801 101.74062 175.80614Q101.83437 175.61864 101.92812 175.75926Q102.1625 176.41551 102.44375 176.55614Q102.725 176.69676 103.19375 176.69676Q104.6 176.69676 106.99062 176.64989Q109.38125 176.60301 109.99062 176.55614Q110.50625 176.50926 110.6 176.41551Q110.74062 176.27489 110.88125 176.27489Q111.30312 176.27489 111.63125 176.60301Q111.95937 176.93114 111.95937 176.97801Q112.05312 177.25926 111.67812 177.21239Q111.06875 177.11864 110.50625 177.11864ZM115.56875 179.60301Q116.55312 177.82176 117.77187 174.07176Q117.81875 173.55614 117.63125 173.32176Q117.49062 173.13426 117.11562 172.94676Q116.975 172.85301 117.20937 172.80614Q117.77187 172.85301 118.2875 173.27489Q118.52187 173.46239 118.85 173.88426Q119.0375 174.11864 118.75625 174.16551Q118.52187 174.21239 118.33437 174.68114Q117.30312 177.35301 115.94375 179.55614Q118.85 179.18114 121.1 178.66551Q120.35 177.44676 119.08437 176.36864Q118.94375 176.18114 119.225 176.22801Q120.39687 177.02489 121.05312 177.68114Q122.55312 179.18114 122.55312 180.11864Q122.55312 180.54051 122.45937 180.63426Q122.31875 180.77489 122.13125 180.72801Q121.89687 180.68114 121.80312 180.21239Q121.6625 179.55614 121.2875 178.94676Q118.19375 179.79051 114.725 180.49364Q114.5375 180.96239 114.20937 180.68114Q113.88125 180.39989 113.64687 180.02489Q113.4125 179.64989 113.45937 179.27489Q113.55312 179.08739 113.64687 179.27489Q113.7875 179.74364 114.35 179.69676Q115.14687 179.64989 115.56875 179.60301ZM123.17812 181.89989Q123.7875 180.49364 123.975 178.57176L124.86562 178.71239Q125.19375 178.94676 124.58437 179.04051Q124.1625 180.86864 123.36562 182.04051Q123.17812 182.22801 123.17812 181.89989ZM127.44375 176.36864Q128.475 175.05614 129.13126 172.19676L129.92813 172.52489Q130.1625 172.71239 129.64688 172.75926Q129.36563 173.64989 129.13126 174.25926L129.36563 174.49364L130.77188 174.49364L131.33438 172.19676L132.17813 172.47801Q132.55313 172.80614 131.85 172.80614L131.00626 174.49364L132.55313 174.49364L133.1625 173.88426L133.9125 174.44676Q134.19376 174.68114 133.9125 174.77489L131.475 174.77489L131.475 176.64989L132.31876 176.64989L132.92813 176.04051L133.67813 176.60301Q133.95938 176.83739 133.67813 176.93114L131.475 176.93114L131.475 178.71239L132.74063 178.71239L133.25626 178.19676L133.9125 178.66551Q134.19376 178.89989 133.9125 178.99364L131.475 178.99364L131.475 181.10301L132.88126 181.10301L133.49063 180.49364L134.24063 181.05614Q134.52188 181.29051 134.24063 181.38426L129.27188 181.38426L129.27188 182.18114Q128.6625 182.74364 128.6625 182.22801L128.6625 175.00926Q128.19376 175.89989 127.63125 176.46239Q127.44375 176.60301 127.44375 176.36864ZM126.45937 176.13426Q126.88125 176.32176 127.30312 176.74364Q127.725 177.16551 127.725 177.58739Q127.725 177.96239 127.49062 177.96239Q127.30312 177.96239 127.20937 177.68114Q127.06875 177.30614 127.02187 177.25926L125.89687 177.44676L125.89687 182.22801Q125.2875 182.79051 125.2875 182.27489L125.2875 177.54051L124.11562 177.72801Q124.02187 178.33739 123.7875 178.00926L123.36562 177.16551L124.77187 177.11864L126.55312 173.69676L127.35 174.21239Q127.58437 174.49364 126.88125 174.39989L125.00625 177.11864L126.88125 177.02489Q126.64687 176.60301 126.31875 176.27489Q126.17812 176.04051 126.45937 176.13426ZM124.44375 175.10301Q124.1625 174.58739 123.6 174.16551Q123.4125 173.97801 123.64687 173.97801Q124.20937 174.11864 124.44375 174.30614L125.56875 172.10301L126.31875 172.57176Q126.50625 172.85301 125.94375 172.75926L124.58437 174.39989Q125.1 174.68114 125.1 175.19676Q125.1 175.47801 124.81875 175.47801Q124.63125 175.47801 124.44375 175.10301ZM127.86562 180.21239Q127.86562 180.77489 127.58437 180.77489Q127.39687 180.77489 127.35 180.54051Q127.11562 179.60301 126.50625 178.71239Q126.4125 178.47801 126.69375 178.61864Q127.86562 179.60301 127.86562 180.21239ZM129.27188 178.71239L130.86563 178.71239L130.86563 176.93114L129.27188 176.93114L129.27188 178.71239ZM129.27188 181.10301L130.86563 181.10301L130.86563 178.99364L129.27188 178.99364L129.27188 181.10301ZM129.27188 174.77489L129.27188 176.64989L130.86563 176.64989L130.86563 174.77489L129.27188 174.77489ZM137.1 174.35301L137.1 171.86864L137.94376 172.00926Q138.45938 172.19676 137.70938 172.38426L137.70938 174.35301L138.36563 174.35301L138.975 173.74364L139.725 174.30614Q140.00626 174.54051 139.725 174.63426L137.70938 174.63426L137.70938 177.30614L139.9125 176.50926Q140.1 176.50926 139.95938 176.69676L137.70938 177.82176L137.70938 181.19676Q137.70938 181.71239 137.38126 181.99364Q137.19376 182.18114 136.9125 182.18114Q136.725 182.18114 136.725 181.94676Q136.725 181.71239 136.44376 181.61864L135.83438 181.52489Q135.64688 181.43114 135.83438 181.33739L136.77188 181.33739Q137.1 181.33739 137.1 181.00926L137.1 178.10301L136.20938 178.57176Q136.20938 179.41551 135.88126 178.99364L135.27188 178.19676L137.1 177.54051L137.1 174.63426L135.45938 174.63426L135.45938 174.35301L137.1 174.35301ZM140.33438 178.47801Q141.88126 178.99364 141.88126 179.83739Q141.88126 180.21239 141.55313 180.21239Q141.31876 180.21239 141.13126 179.64989Q140.94376 179.04051 140.24063 178.61864Q140.1 178.47801 140.33438 178.47801ZM144.225 177.58739L144.88126 177.58739L145.49063 176.97801L146.24063 177.54051Q146.52188 177.77489 146.24063 177.86864L144.225 177.86864L144.225 181.10301Q144.225 181.66551 143.89688 181.94676Q143.61563 182.18114 143.33438 182.22801Q143.05313 182.27489 143.05313 181.94676Q143.05313 181.71239 142.77188 181.61864L142.02188 181.47801Q141.7875 181.38426 142.02188 181.29051L143.19376 181.29051Q143.61563 181.29051 143.61563 180.86864L143.61563 177.86864L138.74063 177.86864L138.74063 177.58739L143.61563 177.58739L143.61563 175.94676L138.92813 175.94676L138.92813 175.66551L141.83438 175.66551L141.83438 173.83739L139.5375 173.83739L139.5375 173.55614L141.83438 173.55614L141.83438 171.77489L142.67813 171.91551Q143.19376 172.10301 142.44376 172.29051L142.44376 173.55614L144.27188 173.55614L144.88126 172.94676L145.63126 173.50926Q145.9125 173.74364 145.63126 173.83739L142.44376 173.83739L142.44376 175.66551L144.64688 175.66551L145.35 174.96239L146.24063 175.61864Q146.52188 175.85301 146.24063 175.94676L144.225 175.94676L144.225 177.58739ZM151.9125 181.05614Q152.42813 181.29051 151.63126 181.33739Q149.99063 182.22801 147.92813 182.60301Q147.50626 182.60301 147.83438 182.41551Q150.13126 181.66551 151.25626 180.72801L151.9125 181.05614ZM157.81876 175.66551Q157.63126 176.64989 157.20938 177.07176Q156.92813 177.35301 156.55313 177.35301Q156.31876 177.35301 156.31876 177.11864Q156.31876 176.83739 156.0375 176.74364L155.56876 176.55614Q155.38126 176.41551 155.61563 176.41551L156.50626 176.64989Q156.975 176.74364 157.20938 175.47801L154.1625 175.47801L154.1625 176.27489Q153.55313 176.83739 153.55313 176.32176L153.55313 175.47801L151.5375 175.47801Q151.1625 176.22801 150.50626 176.79051L150.6 176.88426L154.77188 176.88426L155.05313 176.50926L155.70938 176.97801Q155.99063 177.21239 155.52188 177.30614L155.52188 180.58739Q154.9125 181.14989 154.9125 180.63426L154.9125 180.44676L150.50626 180.44676L150.50626 180.77489Q149.89688 181.33739 149.89688 180.82176L149.89688 177.21239Q148.67813 177.96239 147.64688 178.19676Q147.31876 178.19676 147.55313 178.00926Q150.17813 177.02489 150.92813 175.47801L149.00626 175.47801L148.86563 175.99364Q148.35 176.36864 148.25626 175.99364L148.86563 173.69676L149.42813 174.11864L151.1625 174.11864Q151.20938 173.88426 151.20938 173.55614L151.20938 173.04051L147.975 173.04051L147.975 172.75926L151.20938 172.75926L151.20938 171.63426L152.00626 171.77489Q152.38126 172.00926 151.81876 172.10301L151.81876 172.75926L153.55313 172.75926L153.55313 171.63426L154.35 171.77489Q154.725 172.00926 154.1625 172.10301L154.1625 172.75926L155.70938 172.75926L155.99063 172.38426L156.64688 172.85301Q156.92813 173.08739 156.45938 173.18114L156.45938 174.54051Q155.85 175.10301 155.85 174.58739L155.85 174.39989L154.1625 174.39989L154.1625 175.19676L157.06876 175.19676L157.35 174.86864L158.05313 175.33739Q158.38126 175.66551 157.81876 175.66551ZM151.02188 175.19676Q151.11563 174.86864 151.1625 174.39989L149.2875 174.39989L149.1 175.19676L151.02188 175.19676ZM151.77188 174.39989Q151.725 174.86864 151.63126 175.19676L153.55313 175.19676L153.55313 174.39989L151.77188 174.39989ZM156.69376 182.22801Q156.69376 182.60301 156.4125 182.60301Q156.225 182.60301 155.89688 182.32176Q154.95938 181.52489 153.50626 180.91551Q153.4125 180.77489 153.55313 180.72801Q156.69376 181.38426 156.69376 182.22801ZM150.50626 178.99364L154.9125 178.99364L154.9125 178.24364L150.50626 178.24364L150.50626 178.99364ZM154.1625 174.11864L155.85 174.11864L155.85 173.04051L154.1625 173.04051L154.1625 174.11864ZM151.81876 173.55614Q151.81876 173.88426 151.77188 174.11864L153.55313 174.11864L153.55313 173.04051L151.81876 173.04051L151.81876 173.55614ZM154.9125 180.16551L154.9125 179.27489L150.50626 179.27489L150.50626 180.16551L154.9125 180.16551ZM154.9125 177.96239L154.9125 177.16551L150.50626 177.16551L150.50626 177.96239L154.9125 177.96239Z" fill-rule="nonzero"/><path fill="#9e9e9e" d="M51.146873 199.43114L45.553123 199.43114L45.553123 198.64989L48.50625 195.36864Q49.1625 194.61864 49.4125 194.16551Q49.6625 193.69676 49.6625 193.19676Q49.6625 192.52489 49.25625 192.10301Q48.865623 191.66551 48.178123 191.66551Q47.38125 191.66551 46.928123 192.13426Q46.475 192.58739 46.475 193.41551L45.396873 193.41551Q45.396873 192.22801 46.146873 191.50926Q46.9125 190.77489 48.178123 190.77489Q49.38125 190.77489 50.06875 191.39989Q50.75625 192.02489 50.75625 193.07176Q50.75625 194.32176 49.146873 196.07176L46.865623 198.54051L51.146873 198.54051L51.146873 199.43114ZM57.9125 195.79051Q57.9125 197.69676 57.25625 198.63426Q56.615623 199.55614 55.225 199.55614Q53.865623 199.55614 53.209373 198.64989Q52.553123 197.74364 52.521873 195.93114L52.521873 194.49364Q52.521873 192.60301 53.1625 191.69676Q53.81875 190.77489 55.209373 190.77489Q56.584373 190.77489 57.240623 191.66551Q57.896873 192.54051 57.9125 194.38426L57.9125 195.79051ZM56.81875 194.30614Q56.81875 192.93114 56.428123 192.30614Q56.053123 191.66551 55.209373 191.66551Q54.38125 191.66551 53.990623 192.30614Q53.615623 192.93114 53.615623 194.22801L53.615623 195.96239Q53.615623 197.33739 54.00625 198.00926Q54.4125 198.66551 55.225 198.66551Q56.021873 198.66551 56.4125 198.04051Q56.803123 197.41551 56.81875 196.08739L56.81875 194.30614ZM59.69375 198.86864Q59.69375 198.58739 59.85 198.39989Q60.021873 198.21239 60.35 198.21239Q60.69375 198.21239 60.865623 198.39989Q61.0375 198.58739 61.0375 198.86864Q61.0375 199.13426 60.865623 199.32176Q60.69375 199.49364 60.35 199.49364Q60.021873 199.49364 59.85 199.32176Q59.69375 199.13426 59.69375 198.86864ZM67.9125 195.79051Q67.9125 197.69676 67.25625 198.63426Q66.61562 199.55614 65.225 199.55614Q63.865623 199.55614 63.209373 198.64989Q62.553123 197.74364 62.521873 195.93114L62.521873 194.49364Q62.521873 192.60301 63.1625 191.69676Q63.81875 190.77489 65.20937 190.77489Q66.58437 190.77489 67.24062 191.66551Q67.89687 192.54051 67.9125 194.38426L67.9125 195.79051ZM66.81875 194.30614Q66.81875 192.93114 66.42812 192.30614Q66.05312 191.66551 65.20937 191.66551Q64.38125 191.66551 63.990623 192.30614Q63.615623 192.93114 63.615623 194.22801L63.615623 195.96239Q63.615623 197.33739 64.00625 198.00926Q64.4125 198.66551 65.225 198.66551Q66.02187 198.66551 66.4125 198.04051Q66.80312 197.41551 66.81875 196.08739L66.81875 194.30614ZM69.45937 192.54051Q69.45937 191.77489 69.94375 191.27489Q70.44375 190.77489 71.20937 190.77489Q71.99062 190.77489 72.475 191.27489Q72.95937 191.77489 72.95937 192.57176L72.95937 192.99364Q72.95937 193.75926 72.45937 194.25926Q71.975 194.74364 71.225 194.74364Q70.45937 194.74364 69.95937 194.25926Q69.45937 193.75926 69.45937 192.94676L69.45937 192.54051ZM70.27187 192.99364Q70.27187 193.44676 70.52187 193.74364Q70.7875 194.04051 71.225 194.04051Q71.64687 194.04051 71.89687 193.75926Q72.14687 193.46239 72.14687 192.96239L72.14687 192.54051Q72.14687 192.08739 71.89687 191.79051Q71.64687 191.47801 71.20937 191.47801Q70.77187 191.47801 70.52187 191.79051Q70.27187 192.08739 70.27187 192.55614L70.27187 192.99364ZM73.61562 197.33739Q73.61562 196.57176 74.1 196.08739Q74.6 195.58739 75.36562 195.58739Q76.13125 195.58739 76.61562 196.08739Q77.11562 196.57176 77.11562 197.38426L77.11562 197.79051Q77.11562 198.55614 76.63125 199.05614Q76.14687 199.55614 75.38125 199.55614Q74.61562 199.55614 74.11562 199.07176Q73.61562 198.57176 73.61562 197.75926L73.61562 197.33739ZM74.42812 197.79051Q74.42812 198.25926 74.67812 198.55614Q74.94375 198.85301 75.38125 198.85301Q75.80312 198.85301 76.05312 198.57176Q76.30312 198.27489 76.30312 197.77489L76.30312 197.33739Q76.30312 196.86864 76.0375 196.58739Q75.7875 196.29051 75.36562 196.29051Q74.94375 196.29051 74.67812 196.58739Q74.42812 196.86864 74.42812 197.36864L74.42812 197.79051ZM71.475 198.79051L70.85 198.39989L75.02187 191.72801L75.63125 192.11864L71.475 198.79051Z" fill-rule="nonzero"/><path stroke="#757575" stroke-width="1.0" stroke-linecap="butt" d="M44.85 185.93114L342.8 185.93114L515.1522 185.93114" fill-rule="nonzero"/><path fill="#9e9e9e" d="M517.1522 185.93114C517.1522 184.82657 516.2568 183.93114 515.1522 183.93114C514.04767 183.93114 513.1522 184.82657 513.1522 185.93114C513.1522 187.0357 514.04767 187.93114 515.1522 187.93114C516.2568 187.93114 517.1522 187.0357 517.1522 185.93114" fill-rule="nonzero"/><path fill="#757575" d="M48.740623 529.8041L52.959373 529.8041L53.240623 529.4291L53.896873 529.8978Q54.178123 530.1322 53.709373 530.22595L53.709373 537.72595Q53.1 538.28845 53.1 537.7728L53.1 536.9291L48.646873 536.9291L48.646873 538.3353Q48.0375 538.8978 48.0375 538.3822L48.0375 529.28845L48.740623 529.8041ZM53.1 530.0853L48.646873 530.0853L48.646873 533.03845L53.1 533.03845L53.1 530.0853ZM53.1 533.3197L48.646873 533.3197L48.646873 536.6478L53.1 536.6478L53.1 533.3197ZM61.44375 530.3666Q61.725 530.2728 62.334373 530.6478Q62.94375 531.0228 62.94375 531.35095Q62.94375 531.4916 62.6625 531.4916Q62.521873 531.4916 62.334373 531.8666Q62.19375 532.1478 61.959373 532.5697Q63.271873 532.4291 64.95937 532.2416L65.2875 531.8197L66.13125 532.47595Q66.69375 532.8978 65.85 532.8978Q65.56875 532.8978 65.38125 533.1322Q65.00625 533.60095 64.725 533.9291Q64.1625 534.5853 63.365623 535.3822Q64.02187 535.85095 64.25625 536.0853Q64.67812 536.5072 64.58437 536.8353Q64.44375 537.2572 64.11562 536.9291Q62.475 535.3353 60.7875 534.91345Q60.646873 534.8197 60.88125 534.7728Q62.00625 534.8666 63.084373 535.28845Q64.30312 533.8353 64.9125 532.6166Q63.4125 532.8041 62.990623 532.85095Q62.2875 532.9447 62.19375 533.0853Q62.053123 533.2728 61.9125 533.2728Q61.725 533.2728 61.678123 532.9916Q61.115623 533.7416 60.365623 534.4447Q59.38125 535.3822 58.303123 535.9916Q58.021873 536.0853 58.1625 535.85095Q59.428123 534.8666 59.94375 534.2572Q60.928123 533.1322 61.771873 531.3041Q62.00625 530.78845 61.396873 530.5541Q61.1625 530.4603 61.44375 530.3666ZM74.00625 530.3197Q74.42812 530.5541 74.80312 530.9291Q75.13125 531.2572 74.6625 531.35095Q73.49062 534.6791 72.36562 536.2728Q72.08437 536.6947 71.75625 536.9291Q71.24062 537.3041 71.05312 536.8353Q70.44375 536.6478 70.1625 536.1322Q69.7875 535.47595 69.7875 534.5853Q69.7875 532.7103 70.95937 531.53845Q72.50625 529.9916 74.70937 529.9916Q77.05312 529.9916 78.36562 531.3041Q79.30312 532.2416 79.30312 533.6478Q79.30312 534.91345 78.4125 535.8978Q77.14687 537.3041 74.61562 537.72595Q74.42812 537.6322 74.61562 537.53845Q76.725 537.0228 77.85 535.7103Q78.6 534.8197 78.6 533.60095Q78.6 532.3353 77.94375 531.5853Q76.63125 530.0853 74.00625 530.3197ZM71.80312 536.22595Q73.1625 534.16345 73.95937 531.2103Q74.1 530.6478 73.725 530.3666Q72.50625 530.5541 71.56875 531.4916Q70.35 532.7103 70.35 534.35095Q70.35 535.7572 70.86562 536.2728Q71.1 536.5072 71.33437 536.5072Q71.52187 536.5072 71.80312 536.22595ZM83.4125 531.91345L82.70937 531.91345L82.70937 532.9447Q82.70937 534.3978 81.30312 535.10095L81.30312 535.8041L84.86562 535.8041L84.86562 534.3978L83.975 534.3978Q83.4125 534.3978 83.4125 533.8353L83.4125 531.91345ZM84.86562 533.9291L84.86562 531.91345L83.92812 531.91345L83.92812 533.7416Q83.92812 533.9291 84.11562 533.9291L84.86562 533.9291ZM82.19375 531.91345L81.30312 531.91345L81.30312 534.8197Q82.1 534.4447 82.19375 532.9447L82.19375 531.91345ZM83.4125 529.5228L82.70937 529.5228L82.70937 531.6322L83.4125 531.6322L83.4125 529.5228ZM80.4125 529.2416L84.58437 529.2416L85.19375 528.6322L85.94375 529.1947Q86.225 529.4291 85.94375 529.5228L83.92812 529.5228L83.92812 531.6322L84.725 531.6322L85.00625 531.2572L85.6625 531.72595Q85.94375 531.9603 85.475 532.0541L85.475 538.4291Q84.86562 538.9916 84.86562 538.47595L84.86562 538.0072L81.30312 538.0072L81.30312 538.6166Q80.69375 539.1791 80.69375 538.66345L80.69375 531.16345L81.39687 531.6322L82.19375 531.6322L82.19375 529.5228L80.4125 529.5228L80.4125 529.2416ZM81.30312 537.72595L84.86562 537.72595L84.86562 536.0853L81.30312 536.0853L81.30312 537.72595ZM87.11562 537.6322Q87.11562 537.8197 87.30312 537.8197L90.11562 537.8197Q90.58437 537.8197 90.63125 537.4916L90.9125 536.03845Q91.00625 535.9447 91.05312 536.03845L91.05312 537.4916Q91.05312 537.72595 91.24062 537.8197Q91.56875 537.9603 91.24062 538.2416Q91.1 538.3822 90.39687 538.3822L87.06875 538.3822Q86.50625 538.3822 86.50625 537.8197L86.50625 532.66345L87.20937 533.0853L89.7875 533.0853L89.7875 529.5228L86.64687 529.5228L86.64687 529.2416L89.64687 529.2416L89.92812 528.8666L90.58437 529.3353Q90.86562 529.5697 90.39687 529.66345L90.39687 533.9291Q89.7875 534.4916 89.7875 533.97595L89.7875 533.3666L87.11562 533.3666L87.11562 537.6322ZM93.5375 529.3353Q93.39687 529.1478 93.63125 529.1947Q95.7875 530.3666 95.7875 531.6322Q95.7875 532.1478 95.45937 532.1478Q95.13125 532.1478 95.0375 531.53845Q94.61562 530.3197 93.5375 529.3353ZM99.30312 532.3353Q99.02187 532.47595 99.1625 532.1478Q100.14687 530.60095 100.94375 529.0072L101.88125 529.66345Q102.35 530.0853 101.36562 529.9447L99.30312 532.3353ZM101.74062 538.5697Q101.13125 539.1322 101.13125 538.6166L101.13125 537.9603L93.725 537.9603L93.725 537.6791L101.13125 537.6791L101.13125 535.3822L93.725 535.3822L93.725 535.10095L101.13125 535.10095L101.13125 533.0853L93.58437 533.0853L93.58437 532.8041L97.475 532.8041L97.475 528.4447L98.27187 528.5853Q98.64687 528.8197 98.08437 528.91345L98.08437 532.8041L100.99062 532.8041L101.27187 532.4291L101.92812 532.8978Q102.20937 533.1322 101.74062 533.22595L101.74062 538.5697ZM109.14687 528.4916Q106.99062 530.60095 106.99062 533.6947Q106.99062 536.78845 109.14687 538.8978L108.9125 539.1322Q106.33437 536.97595 106.33437 533.6947Q106.33437 530.41345 108.9125 528.2572L109.14687 528.4916Z" fill-rule="nonzero"/><path fill="#757575" d="M115.55312 534.2416L111.95937 534.2416L111.95937 538.0072L110.83437 538.0072L110.83437 529.47595L116.13125 529.47595L116.13125 530.3978L111.95937 530.3978L111.95937 533.3197L115.55312 533.3197L115.55312 534.2416ZM123.74062 530.3978L120.99062 530.3978L120.99062 538.0072L119.88125 538.0072L119.88125 530.3978L117.13125 530.3978L117.13125 529.47595L123.74062 529.47595L123.74062 530.3978Z" fill-rule="nonzero"/><path fill="#757575" d="M125.725 536.8822Q125.58437 536.7416 125.58437 536.5072Q125.63125 535.9447 125.58437 534.8197Q125.63125 533.41345 125.39687 531.7728Q125.30312 531.4447 125.11562 531.3041Q124.92812 531.16345 124.83437 531.1166Q124.64687 531.0228 124.83437 530.97595Q125.67812 530.97595 126.00625 531.6322Q128.44376 531.4447 131.11563 531.2103Q131.25626 531.0697 131.39688 530.8822Q131.77188 531.16345 132.1 531.4447Q132.2875 531.5853 132.2875 531.72595Q132.2875 531.8666 132.05313 531.8666Q131.9125 531.8666 131.81876 532.10095Q131.39688 533.78845 130.92813 535.47595Q131.06876 535.47595 131.35 535.3822Q131.58438 535.4291 131.81876 535.6166Q132.05313 535.8041 132.05313 535.9447Q132.05313 536.03845 131.725 536.03845Q130.6 535.8978 128.1625 536.0853Q126.475 536.1791 126.19375 536.22595Q126.19375 536.5072 126.19375 536.7416Q126.19375 537.1166 126.05312 537.1166Q125.95937 537.1166 125.725 536.8822ZM126.14687 535.85095Q128.35 535.7103 130.50626 535.5228Q130.88126 533.5541 131.25626 531.5853Q128.5375 531.8197 126.00625 532.0072Q126.1 533.9291 126.14687 535.85095ZM135.1 534.8666Q134.86563 534.8666 134.77188 534.6322Q134.58438 534.1166 134.44376 533.9291Q134.1625 533.5072 133.55313 533.0853Q133.45938 532.9916 133.6 532.9447Q133.975 533.03845 134.44376 533.3197Q134.81876 533.5541 135.05313 533.78845Q135.42813 534.16345 135.38126 534.4916Q135.33438 534.8666 135.1 534.8666ZM137.44376 533.6478Q137.44376 533.97595 137.1625 533.97595Q136.92813 533.97595 136.83438 533.7416Q136.55313 533.0853 136.31876 532.8041Q136.08438 532.5697 135.56876 532.2416Q135.42813 532.10095 135.61563 532.10095Q136.17813 532.1947 136.74063 532.5697Q137.44376 533.03845 137.44376 533.6478ZM139.64688 532.1947Q140.06876 532.2416 140.35 532.4291Q141.00626 532.85095 141.00626 533.1322Q141.00626 533.22595 140.77188 533.22595Q140.5375 533.22595 140.39688 533.5541Q138.52188 537.53845 134.1625 538.9447Q133.88126 538.9447 134.06876 538.7103Q138.56876 536.8822 139.92813 532.85095Q140.02188 532.5697 139.55313 532.3353Q139.36563 532.2416 139.64688 532.1947ZM146.58438 530.22595Q146.44376 530.5541 146.30313 530.8822Q147.1 530.8822 148.7875 530.7416Q148.975 530.60095 149.20938 530.3666Q149.63126 530.6478 149.9125 530.8353Q150.14688 531.0228 150.14688 531.16345Q150.14688 531.3041 149.86563 531.3041Q149.58438 531.2572 149.49063 531.53845Q147.52188 536.41345 142.7875 538.3822Q142.50626 538.3822 142.69376 538.1947Q147.38126 535.6166 148.83438 531.1166Q147.33438 531.16345 146.11563 531.2103Q145.13126 533.1322 142.6 534.5853Q142.36563 534.5853 142.50626 534.3978Q144.99063 532.5697 145.83438 530.3197Q146.02188 529.8041 145.92813 529.6166Q145.83438 529.4291 145.50626 529.3353Q145.31876 529.2416 145.50626 529.1478Q145.7875 529.0541 146.44376 529.4291Q146.95938 529.7103 146.95938 529.8978Q146.95938 530.03845 146.725 530.03845Q146.63126 530.03845 146.58438 530.22595ZM160.45938 529.85095Q160.88126 530.2728 160.88126 530.41345Q160.88126 530.5541 160.64688 530.5541Q160.50626 530.5541 160.27188 530.5072Q159.24063 531.16345 156.52188 532.7103Q156.00626 536.3666 152.81876 538.1478Q152.49063 538.2416 152.58438 538.0072Q155.49063 536.03845 155.77188 532.8041Q155.9125 531.8197 155.35 531.6791Q155.02188 531.5853 155.25626 531.4916Q155.9125 531.4447 156.38126 531.8197Q156.61563 532.0072 156.56876 532.28845Q158.39688 531.2103 159.61563 530.03845Q156.70938 530.1791 154.74063 530.5072Q153.1 530.78845 152.9125 530.9291Q152.725 531.0697 152.5375 531.0697Q152.39688 531.0697 151.975 530.6947Q151.50626 530.2728 151.50626 529.9447Q151.50626 529.66345 151.74063 529.8041Q152.02188 530.2728 152.95938 530.22595Q154.08438 530.1791 155.06876 530.03845Q157.55313 529.7572 159.38126 529.7572Q159.75626 529.5697 159.99063 529.3822L160.45938 529.85095ZM164.1 534.8666Q163.86563 534.8666 163.77188 534.6322Q163.58438 534.1166 163.44376 533.9291Q163.1625 533.5072 162.55313 533.0853Q162.45938 532.9916 162.6 532.9447Q162.975 533.03845 163.44376 533.3197Q163.81876 533.5541 164.05313 533.78845Q164.42813 534.16345 164.38126 534.4916Q164.33438 534.8666 164.1 534.8666ZM166.44376 533.6478Q166.44376 533.97595 166.1625 533.97595Q165.92813 533.97595 165.83438 533.7416Q165.55313 533.0853 165.31876 532.8041Q165.08438 532.5697 164.56876 532.2416Q164.42813 532.10095 164.61563 532.10095Q165.17813 532.1947 165.74063 532.5697Q166.44376 533.03845 166.44376 533.6478ZM168.64688 532.1947Q169.06876 532.2416 169.35 532.4291Q170.00626 532.85095 170.00626 533.1322Q170.00626 533.22595 169.77188 533.22595Q169.5375 533.22595 169.39688 533.5541Q167.52188 537.53845 163.1625 538.9447Q162.88126 538.9447 163.06876 538.7103Q167.56876 536.8822 168.92813 532.85095Q169.02188 532.5697 168.55313 532.3353Q168.36563 532.2416 168.64688 532.1947ZM180.69376 530.4603Q181.06876 530.4603 181.30313 530.22595Q181.58438 529.9447 181.58438 529.5697Q181.58438 529.1947 181.30313 528.91345Q181.06876 528.6791 180.69376 528.6791Q180.31876 528.6791 180.08438 528.91345Q179.80313 529.1947 179.80313 529.5697Q179.80313 529.9447 180.08438 530.22595Q180.31876 530.4603 180.69376 530.4603ZM180.69376 530.7416Q180.17813 530.7416 179.85 530.41345Q179.52188 530.0853 179.52188 529.5697Q179.52188 529.0541 179.85 528.72595Q180.17813 528.3978 180.69376 528.3978Q181.20938 528.3978 181.5375 528.72595Q181.86563 529.0541 181.86563 529.5697Q181.86563 530.0853 181.5375 530.41345Q181.20938 530.7416 180.69376 530.7416ZM179.14688 531.53845Q177.08438 536.7416 172.35 538.10095Q172.06876 538.10095 172.25626 537.8666Q176.6625 536.3197 178.49063 531.16345Q178.58438 530.8822 178.35 530.8822Q177.31876 530.97595 173.05313 531.4916Q172.86563 531.53845 172.63126 531.72595Q172.58438 531.8666 172.44376 531.8666Q172.30313 531.8666 171.83438 531.4447Q171.45938 531.1166 171.4125 530.7416Q171.4125 530.5072 171.6 530.6947Q171.7875 531.0228 172.39688 531.0228Q172.77188 531.0228 177.975 530.60095Q178.5375 530.5072 178.67813 530.1791Q179.24063 530.4603 179.61563 530.8353Q179.85 531.0697 179.85 531.2103Q179.85 531.35095 179.52188 531.35095Q179.19376 531.35095 179.14688 531.53845ZM189.25626 534.4447Q191.0375 536.4603 193.33438 537.35095Q192.81876 537.5853 192.5375 538.0072Q190.56876 536.78845 189.1625 534.6322L189.1625 538.7103Q188.55313 539.2728 188.55313 538.7572L188.55313 534.7728Q186.77188 536.9291 184.85 537.9603Q184.56876 538.0541 184.70938 537.8197Q186.67813 536.3666 187.94376 534.4447L185.08438 534.4447L185.08438 534.16345L188.55313 534.16345L188.55313 532.1947L187.19376 532.1947L187.19376 532.66345Q186.58438 533.22595 186.58438 532.7103L186.58438 528.8197L187.2875 529.1947L190.61563 529.1947L190.89688 528.8197L191.55313 529.28845Q191.83438 529.5228 191.36563 529.6166L191.36563 532.3353Q190.75626 532.8978 190.75626 532.3822L190.75626 532.1947L189.1625 532.1947L189.1625 534.16345L191.64688 534.16345L192.35 533.4603L193.24063 534.1166Q193.52188 534.35095 193.24063 534.4447L189.25626 534.4447ZM182.13126 533.97595Q183.81876 531.6791 184.56876 528.4916L185.55313 528.91345Q185.74063 529.1478 185.17813 529.2416Q184.75626 530.3666 184.24063 531.3041L184.80313 531.4916Q185.13126 531.6791 184.33438 531.91345L184.33438 538.7103Q183.725 539.2728 183.725 538.7572L183.725 532.2416Q183.06876 533.2728 182.27188 534.1166Q182.0375 534.2103 182.13126 533.97595ZM190.75626 529.47595L187.19376 529.47595L187.19376 531.91345L190.75626 531.91345L190.75626 529.47595ZM197.64688 532.9447Q196.42813 534.4447 194.64688 535.6166Q194.36563 535.7103 194.50626 535.4291Q197.17813 533.0853 198.44376 530.60095L194.74063 530.60095L194.74063 530.3197L198.58438 530.3197Q199.1 529.2416 199.38126 528.16345L200.31876 528.6322Q200.7875 528.9603 199.94376 528.9603Q199.56876 529.85095 199.2875 530.3197L203.64688 530.3197L204.35 529.6166L205.24063 530.2728Q205.52188 530.5072 205.24063 530.60095L199.19376 530.60095Q198.725 531.4447 198.25626 532.0541L198.39688 532.2416L202.14688 532.2416L202.42813 531.8666L203.08438 532.3353Q203.36563 532.5697 202.89688 532.66345L202.89688 538.0072Q202.89688 538.5228 202.56876 538.8041Q202.38126 538.9916 202.1 538.9916Q201.9125 538.9916 201.9125 538.8041Q201.9125 538.5697 201.63126 538.47595L201.02188 538.3353Q200.83438 538.2416 201.02188 538.1478L201.95938 538.1478Q202.2875 538.1478 202.2875 537.8197L202.2875 536.0853L198.25626 536.0853L198.25626 538.85095Q197.64688 539.41345 197.64688 538.8978L197.64688 532.9447ZM202.2875 535.8041L202.2875 534.3041L198.25626 534.3041L198.25626 535.8041L202.2875 535.8041ZM202.2875 532.5228L198.25626 532.5228L198.25626 534.0228L202.2875 534.0228L202.2875 532.5228ZM213.95938 533.78845L214.24063 533.41345L214.89688 533.8822Q215.17813 534.1166 214.70938 534.2103L214.70938 538.4291Q214.1 538.9916 214.1 538.47595L214.1 538.1478L210.11563 538.1478L210.11563 538.7572Q209.50626 539.3197 209.50626 538.8041L209.50626 534.53845Q207.95938 535.47595 206.31876 536.03845Q205.99063 536.03845 206.225 535.8041Q208.475 534.7728 209.50626 533.97595L209.50626 533.2728L210.02188 533.6478Q210.95938 533.03845 211.89688 532.1947L206.69376 532.1947L206.69376 531.91345L210.9125 531.91345L210.9125 530.2728L207.49063 530.2728L207.49063 529.9916L210.9125 529.9916L210.9125 528.2103L211.70938 528.35095Q212.08438 528.5853 211.52188 528.6791L211.52188 529.9916L212.36563 529.9916L212.975 529.3822L213.86563 530.0853Q214.52188 529.28845 214.99063 528.5853L215.83438 529.2416Q216.35 529.6166 215.225 529.47595Q214.05313 530.97595 213.02188 531.91345L215.69376 531.91345L216.39688 531.2103L217.2875 531.8666Q217.56876 532.10095 217.2875 532.1947L212.74063 532.1947Q211.80313 533.0853 210.725 533.78845L213.95938 533.78845ZM212.17813 531.91345Q212.975 531.16345 213.725 530.2728L211.52188 530.2728L211.52188 531.91345L212.17813 531.91345ZM210.11563 535.7572L214.1 535.7572L214.1 534.0697L210.11563 534.0697L210.11563 535.7572ZM210.11563 537.8666L214.1 537.8666L214.1 536.03845L210.11563 536.03845L210.11563 537.8666ZM228.95938 535.8041Q228.67813 535.7103 227.83438 535.2416Q226.05313 534.2572 223.56876 532.6166Q223.00626 532.2416 222.58438 532.2416Q222.1625 532.2416 221.88126 532.5228Q221.64688 532.7572 221.0375 533.5072Q220.33438 534.35095 220.14688 534.72595Q219.95938 535.10095 219.5375 534.8666Q218.64688 534.3978 218.55313 533.9291Q218.6 533.78845 218.69376 533.8822Q219.25626 534.4447 219.63126 534.2103Q219.9125 534.0228 220.56876 533.3666Q221.13126 532.8041 221.64688 532.28845Q222.02188 531.91345 222.63126 531.91345Q223.05313 531.91345 223.61563 532.2416Q225.67813 533.4603 228.02188 534.53845Q228.63126 534.8197 228.9125 534.8666Q229.14688 534.91345 229.24063 535.2416Q229.33438 535.5697 229.33438 535.66345Q229.33438 535.9447 228.95938 535.8041ZM236.13126 532.28845L236.0375 534.3041L238.38126 534.3041L238.475 532.28845L236.13126 532.28845ZM238.99063 534.5853Q238.89688 536.03845 238.75626 537.0228L239.50626 537.0228L240.11563 536.41345L240.9125 536.97595Q241.19376 537.2103 240.9125 537.3041L238.70938 537.3041Q238.6625 537.7728 238.56876 538.0541Q238.475 538.4291 238.14688 538.7572Q237.86563 538.9916 237.58438 538.9916Q237.39688 538.9916 237.39688 538.8041Q237.39688 538.6166 237.11563 538.47595L236.50626 538.2416Q236.31876 538.0541 236.6 538.0541L237.35 538.1947Q237.86563 538.28845 238.00626 537.72595L238.1 537.3041L232.70938 537.3041L232.52188 538.47595Q231.9125 538.9447 231.9125 538.5228L232.475 534.5853L230.69376 534.5853L230.69376 534.3041L232.52188 534.3041L232.85 531.53845L233.45938 532.0072L238.38126 532.0072L238.61563 531.6322L239.45938 532.1947Q239.74063 532.5228 239.08438 532.5228L238.99063 534.3041L239.69376 534.3041L240.35 533.6478L241.19376 534.2572Q241.475 534.4916 241.19376 534.5853L238.99063 534.5853ZM238.14688 537.0228Q238.2875 536.0853 238.38126 534.5853L235.99063 534.5853L235.75626 537.0228L238.14688 537.0228ZM235.42813 534.3041L235.52188 532.28845L233.36563 532.28845L233.13126 534.3041L235.42813 534.3041ZM235.14688 537.0228L235.38126 534.5853L233.08438 534.5853L232.75626 537.0228L235.14688 537.0228ZM233.08438 530.4603Q232.24063 531.7728 230.83438 532.8978Q230.50626 532.9916 230.69376 532.7103Q232.33438 530.97595 233.45938 528.35095L234.39688 528.8197Q234.63126 529.0541 233.92813 529.10095Q233.6 529.66345 233.27188 530.1791L238.94376 530.1791L239.6 529.5228L240.44376 530.1322Q240.725 530.3666 240.44376 530.4603L233.08438 530.4603ZM245.74063 529.8041L249.95938 529.8041L250.24063 529.4291L250.89688 529.8978Q251.17813 530.1322 250.70938 530.22595L250.70938 537.72595Q250.1 538.28845 250.1 537.7728L250.1 536.9291L245.64688 536.9291L245.64688 538.3353Q245.0375 538.8978 245.0375 538.3822L245.0375 529.28845L245.74063 529.8041ZM250.1 530.0853L245.64688 530.0853L245.64688 533.03845L250.1 533.03845L250.1 530.0853ZM250.1 533.3197L245.64688 533.3197L245.64688 536.6478L250.1 536.6478L250.1 533.3197ZM257.4125 531.91345L256.70938 531.91345L256.70938 532.9447Q256.70938 534.3978 255.30313 535.10095L255.30313 535.8041L258.86563 535.8041L258.86563 534.3978L257.975 534.3978Q257.4125 534.3978 257.4125 533.8353L257.4125 531.91345ZM258.86563 533.9291L258.86563 531.91345L257.92813 531.91345L257.92813 533.7416Q257.92813 533.9291 258.11563 533.9291L258.86563 533.9291ZM256.19376 531.91345L255.30313 531.91345L255.30313 534.8197Q256.1 534.4447 256.19376 532.9447L256.19376 531.91345ZM257.4125 529.5228L256.70938 529.5228L256.70938 531.6322L257.4125 531.6322L257.4125 529.5228ZM254.4125 529.2416L258.58438 529.2416L259.19376 528.6322L259.94376 529.1947Q260.225 529.4291 259.94376 529.5228L257.92813 529.5228L257.92813 531.6322L258.725 531.6322L259.00626 531.2572L259.6625 531.72595Q259.94376 531.9603 259.475 532.0541L259.475 538.4291Q258.86563 538.9916 258.86563 538.47595L258.86563 538.0072L255.30313 538.0072L255.30313 538.6166Q254.69376 539.1791 254.69376 538.66345L254.69376 531.16345L255.39688 531.6322L256.19376 531.6322L256.19376 529.5228L254.4125 529.5228L254.4125 529.2416ZM255.30313 537.72595L258.86563 537.72595L258.86563 536.0853L255.30313 536.0853L255.30313 537.72595ZM261.11563 537.6322Q261.11563 537.8197 261.30313 537.8197L264.11563 537.8197Q264.58438 537.8197 264.63126 537.4916L264.9125 536.03845Q265.00626 535.9447 265.05313 536.03845L265.05313 537.4916Q265.05313 537.72595 265.24063 537.8197Q265.56876 537.9603 265.24063 538.2416Q265.1 538.3822 264.39688 538.3822L261.06876 538.3822Q260.50626 538.3822 260.50626 537.8197L260.50626 532.66345L261.20938 533.0853L263.7875 533.0853L263.7875 529.5228L260.64688 529.5228L260.64688 529.2416L263.64688 529.2416L263.92813 528.8666L264.58438 529.3353Q264.86563 529.5697 264.39688 529.66345L264.39688 533.9291Q263.7875 534.4916 263.7875 533.97595L263.7875 533.3666L261.11563 533.3666L261.11563 537.6322ZM266.225 536.1791Q265.99063 536.1791 266.13126 535.9916Q268.75626 534.0697 270.20938 530.8353L266.4125 530.8353L266.4125 530.5541L270.30313 530.5541Q270.77188 529.5228 271.05313 528.35095L271.89688 528.72595Q272.31876 528.91345 271.56876 529.1478Q271.2875 529.8978 270.95938 530.5541L275.45938 530.5541L276.1625 529.85095L277.00626 530.5072Q277.2875 530.7416 277.00626 530.8353L270.81876 530.8353Q270.39688 531.7728 269.7875 532.66345L270.02188 532.9916L272.13126 532.9916L272.13126 531.35095L272.92813 531.4916Q273.30313 531.72595 272.74063 531.8197L272.74063 532.9916L275.13126 532.9916L275.4125 532.6166L276.06876 533.0853Q276.35 533.3197 275.88126 533.41345L275.88126 537.0697Q275.88126 537.5853 275.55313 537.8666Q275.36563 538.0541 275.08438 538.0541Q274.89688 538.0541 274.89688 537.8666Q274.89688 537.6322 274.61563 537.53845L274.00626 537.3978Q273.81876 537.3041 274.00626 537.2103L274.94376 537.2103Q275.27188 537.2103 275.27188 536.8822L275.27188 533.2728L272.74063 533.2728L272.74063 538.6166Q272.13126 539.1791 272.13126 538.66345L272.13126 533.2728L269.92813 533.2728L269.92813 538.0072Q269.31876 538.5697 269.31876 538.0541L269.31876 533.41345Q268.00626 535.10095 266.225 536.1791ZM278.74063 528.2572Q281.31876 530.41345 281.31876 533.6947Q281.31876 536.97595 278.74063 539.1322L278.50626 538.8978Q280.6625 536.78845 280.6625 533.6947Q280.6625 530.60095 278.50626 528.4916L278.74063 528.2572Z" fill-rule="nonzero"/><path fill="#9e9e9e" d="M49.115623 556.0072L48.0375 556.0072L48.0375 548.78845L45.85 549.5853L45.85 548.60095L48.959373 547.4291L49.115623 547.4291L49.115623 556.0072ZM56.81875 547.47595L56.81875 548.3822L56.615623 548.3822Q55.35 548.41345 54.6 549.1478Q53.85 549.8666 53.725 551.1791Q54.4125 550.41345 55.56875 550.41345Q56.678123 550.41345 57.35 551.1947Q58.021873 551.97595 58.021873 553.22595Q58.021873 554.53845 57.303123 555.3353Q56.584373 556.1322 55.365623 556.1322Q54.146873 556.1322 53.38125 555.1947Q52.63125 554.2416 52.63125 552.7572L52.63125 552.35095Q52.63125 549.9916 53.63125 548.7416Q54.63125 547.4916 56.615623 547.47595L56.81875 547.47595ZM55.396873 551.3197Q54.834373 551.3197 54.365623 551.6478Q53.896873 551.97595 53.709373 552.4916L53.709373 552.8822Q53.709373 553.9447 54.178123 554.5853Q54.6625 555.22595 55.365623 555.22595Q56.1 555.22595 56.521873 554.6947Q56.94375 554.1478 56.94375 553.2728Q56.94375 552.3978 56.521873 551.8666Q56.1 551.3197 55.396873 551.3197ZM59.69375 555.4447Q59.69375 555.16345 59.85 554.97595Q60.021873 554.78845 60.35 554.78845Q60.69375 554.78845 60.865623 554.97595Q61.0375 555.16345 61.0375 555.4447Q61.0375 555.7103 60.865623 555.8978Q60.69375 556.0697 60.35 556.0697Q60.021873 556.0697 59.85 555.8978Q59.69375 555.7103 59.69375 555.4447ZM67.9125 552.3666Q67.9125 554.2728 67.25625 555.2103Q66.61562 556.1322 65.225 556.1322Q63.865623 556.1322 63.209373 555.22595Q62.553123 554.3197 62.521873 552.5072L62.521873 551.0697Q62.521873 549.1791 63.1625 548.2728Q63.81875 547.35095 65.20937 547.35095Q66.58437 547.35095 67.24062 548.2416Q67.89687 549.1166 67.9125 550.9603L67.9125 552.3666ZM66.81875 550.8822Q66.81875 549.5072 66.42812 548.8822Q66.05312 548.2416 65.20937 548.2416Q64.38125 548.2416 63.990623 548.8822Q63.615623 549.5072 63.615623 550.8041L63.615623 552.53845Q63.615623 553.91345 64.00625 554.5853Q64.4125 555.2416 65.225 555.2416Q66.02187 555.2416 66.4125 554.6166Q66.80312 553.9916 66.81875 552.66345L66.81875 550.8822ZM69.45937 549.1166Q69.45937 548.35095 69.94375 547.85095Q70.44375 547.35095 71.20937 547.35095Q71.99062 547.35095 72.475 547.85095Q72.95937 548.35095 72.95937 549.1478L72.95937 549.5697Q72.95937 550.3353 72.45937 550.8353Q71.975 551.3197 71.225 551.3197Q70.45937 551.3197 69.95937 550.8353Q69.45937 550.3353 69.45937 549.5228L69.45937 549.1166ZM70.27187 549.5697Q70.27187 550.0228 70.52187 550.3197Q70.7875 550.6166 71.225 550.6166Q71.64687 550.6166 71.89687 550.3353Q72.14687 550.03845 72.14687 549.53845L72.14687 549.1166Q72.14687 548.66345 71.89687 548.3666Q71.64687 548.0541 71.20937 548.0541Q70.77187 548.0541 70.52187 548.3666Q70.27187 548.66345 70.27187 549.1322L70.27187 549.5697ZM73.61562 553.91345Q73.61562 553.1478 74.1 552.66345Q74.6 552.16345 75.36562 552.16345Q76.13125 552.16345 76.61562 552.66345Q77.11562 553.1478 77.11562 553.9603L77.11562 554.3666Q77.11562 555.1322 76.63125 555.6322Q76.14687 556.1322 75.38125 556.1322Q74.61562 556.1322 74.11562 555.6478Q73.61562 555.1478 73.61562 554.3353L73.61562 553.91345ZM74.42812 554.3666Q74.42812 554.8353 74.67812 555.1322Q74.94375 555.4291 75.38125 555.4291Q75.80312 555.4291 76.05312 555.1478Q76.30312 554.85095 76.30312 554.35095L76.30312 553.91345Q76.30312 553.4447 76.0375 553.16345Q75.7875 552.8666 75.36562 552.8666Q74.94375 552.8666 74.67812 553.16345Q74.42812 553.4447 74.42812 553.9447L74.42812 554.3666ZM71.475 555.3666L70.85 554.97595L75.02187 548.3041L75.63125 548.6947L71.475 555.3666Z" fill-rule="nonzero"/><path stroke="#757575" stroke-width="1.0" stroke-linecap="butt" d="M44.85 542.5072L342.8 542.5072L373.9738 542.5072" fill-rule="nonzero"/><path fill="#9e9e9e" d="M375.9738 542.5072C375.9738 541.40265 375.07834 540.5072 373.9738 540.5072C372.8692 540.5072 371.9738 541.40265 371.9738 542.5072C371.9738 543.61176 372.8692 544.5072 373.9738 544.5072C375.07834 544.5072 375.9738 543.61176 375.9738 542.5072" fill-rule="nonzero"/><path fill="#757575" d="M1215.0094 620.7903L1210.0406 620.7903L1210.0406 620.50903L1211.7281 620.50903L1211.7281 617.4153L1212.4313 617.88403L1215.0094 617.88403L1215.0094 615.58716L1212.3375 615.58716Q1211.3531 617.6028 1209.6656 618.8684Q1209.4781 618.9153 1209.5719 618.7278Q1211.6813 616.4309 1212.2438 613.75903L1213.1344 614.08716Q1213.7438 614.3684 1212.8531 614.46216Q1212.6656 614.88403 1212.4781 615.3059L1218.3844 615.3059L1218.9938 614.69653L1219.7438 615.25903Q1220.025 615.4934 1219.7438 615.58716L1215.6188 615.58716L1215.6188 617.88403L1217.9625 617.88403L1218.5719 617.27466L1219.3219 617.83716Q1219.6031 618.07153 1219.3219 618.1653L1215.6188 618.1653L1215.6188 620.50903L1218.9938 620.50903L1219.6969 619.8059L1220.5875 620.46216Q1220.8688 620.69653 1220.5875 620.7903L1215.6188 620.7903L1215.6188 624.1653Q1215.0094 624.7278 1215.0094 624.21216L1215.0094 620.7903ZM1212.3375 618.1653L1212.3375 620.50903L1215.0094 620.50903L1215.0094 618.1653L1212.3375 618.1653ZM1223.1656 614.32153L1225.6031 614.32153L1225.8844 613.94653L1226.5406 614.4153Q1226.8219 614.64966 1226.3531 614.7434L1226.3531 617.7903Q1225.7438 618.25903 1225.7438 617.83716L1225.7438 617.50903L1223.0719 617.50903L1223.0719 624.07153Q1222.4625 624.63403 1222.4625 624.1184L1222.4625 613.89966L1223.1656 614.32153ZM1223.0719 614.6028L1223.0719 615.7278L1225.7438 615.7278L1225.7438 614.6028L1223.0719 614.6028ZM1223.0719 616.00903L1223.0719 617.2278L1225.7438 617.2278L1225.7438 616.00903L1223.0719 616.00903ZM1225.65 620.32153L1228.2281 620.32153L1228.2281 619.19653L1225.65 619.19653L1225.65 620.32153ZM1225.65 621.9153L1228.2281 621.9153L1228.2281 620.6028L1225.65 620.6028L1225.65 621.9153ZM1225.7438 618.9153L1228.0875 618.9153L1228.3688 618.5403L1229.025 619.00903Q1229.3063 619.2434 1228.8375 619.33716L1228.8375 622.8528Q1228.2281 623.4153 1228.2281 622.89966L1228.2281 622.19653L1225.65 622.19653L1225.65 623.1809Q1225.0406 623.7434 1225.0406 623.2278L1225.0406 618.4934L1225.7438 618.9153ZM1231.1813 617.2278L1231.1813 616.00903L1228.3219 616.00903L1228.3219 617.2278L1231.1813 617.2278ZM1231.1813 615.7278L1231.1813 614.6028L1228.3219 614.6028L1228.3219 615.7278L1231.1813 615.7278ZM1231.1813 617.50903L1228.3219 617.50903L1228.3219 617.83716Q1227.7125 618.39966 1227.7125 617.88403L1227.7125 613.89966L1228.4156 614.32153L1231.0406 614.32153L1231.3219 613.94653L1231.9781 614.4153Q1232.2594 614.64966 1231.7906 614.7434L1231.7906 623.27466Q1231.7906 623.83716 1231.4625 624.1184Q1231.1813 624.3528 1230.8063 624.39966Q1230.525 624.44653 1230.525 624.1653Q1230.525 623.9309 1230.2906 623.83716L1229.4938 623.64966Q1229.2594 623.5559 1229.4938 623.46216L1230.7594 623.46216Q1231.1813 623.46216 1231.1813 623.0403L1231.1813 617.50903ZM1238.3063 615.63403Q1238.7281 615.8684 1239.1031 616.2434Q1239.4313 616.57153 1238.9625 616.6653Q1237.7906 619.9934 1236.6656 621.58716Q1236.3844 622.00903 1236.0563 622.2434Q1235.5406 622.6184 1235.3531 622.14966Q1234.7438 621.96216 1234.4625 621.44653Q1234.0875 620.7903 1234.0875 619.89966Q1234.0875 618.02466 1235.2594 616.8528Q1236.8063 615.3059 1239.0094 615.3059Q1241.3531 615.3059 1242.6656 616.6184Q1243.6031 617.5559 1243.6031 618.96216Q1243.6031 620.2278 1242.7125 621.21216Q1241.4469 622.6184 1238.9156 623.0403Q1238.7281 622.94653 1238.9156 622.8528Q1241.025 622.33716 1242.15 621.02466Q1242.9 620.13403 1242.9 618.9153Q1242.9 617.64966 1242.2438 616.89966Q1240.9313 615.39966 1238.3063 615.63403ZM1236.1031 621.5403Q1237.4625 619.4778 1238.2594 616.52466Q1238.4 615.96216 1238.025 615.6809Q1236.8063 615.8684 1235.8688 616.8059Q1234.65 618.02466 1234.65 619.6653Q1234.65 621.07153 1235.1656 621.58716Q1235.4 621.82153 1235.6344 621.82153Q1235.8219 621.82153 1236.1031 621.5403ZM1248.6031 622.33716Q1248.7906 622.6184 1248.4156 622.57153L1248.0406 622.57153Q1246.4469 623.83716 1245.1813 624.1653Q1244.9469 624.1653 1245.1344 624.02466Q1246.8219 623.13403 1248.0406 621.77466L1248.6031 622.33716ZM1253.6656 623.3684Q1253.2438 622.71216 1251.7906 621.8684Q1251.65 621.7278 1251.8375 621.7278Q1253.3375 622.1028 1254.0875 622.75903Q1254.4156 623.0403 1254.4156 623.3684Q1254.4156 623.7903 1254.1344 623.7903Q1253.9469 623.7903 1253.6656 623.3684ZM1250.3844 621.21216L1250.3844 624.25903Q1249.775 624.82153 1249.775 624.3059L1249.775 621.25903L1246.025 621.5403Q1245.9313 622.2434 1245.65 621.8684L1244.9938 620.9309L1249.6344 620.88403L1251.9313 618.21216L1252.5875 618.7278Q1252.775 619.00903 1252.2125 618.9153L1250.0563 620.7903L1253.7125 620.69653Q1253.15 620.08716 1252.6813 619.8059Q1252.4469 619.6184 1252.775 619.6653Q1253.6188 619.9934 1254.1813 620.46216Q1254.7906 620.9778 1254.7906 621.5403Q1254.7906 621.8684 1254.5094 621.8684Q1254.3219 621.8684 1254.1344 621.4934Q1253.9469 621.1184 1253.8531 620.9309L1250.3844 621.21216ZM1247.0563 617.9309L1247.0563 618.58716Q1246.4469 619.14966 1246.4469 618.63403L1246.4469 613.94653L1247.15 614.2278L1252.9156 614.2278L1253.1969 613.8528L1253.8531 614.32153Q1254.1344 614.5559 1253.6656 614.64966L1253.6656 618.21216Q1253.0563 618.77466 1253.0563 618.25903L1253.0563 617.9309L1250.15 617.9309L1248.7438 619.6184Q1249.2125 619.89966 1249.2125 620.32153Q1249.2125 620.64966 1248.9781 620.64966Q1248.7906 620.64966 1248.5563 620.2278Q1248.1813 619.57153 1247.15 619.0559Q1247.0094 618.96216 1247.1969 618.9153Q1247.9469 619.0559 1248.5563 619.4778L1249.3531 617.9309L1247.0563 617.9309ZM1250.3844 615.96216L1253.0563 615.96216L1253.0563 614.50903L1250.3844 614.50903L1250.3844 615.96216ZM1253.0563 616.2434L1250.3844 616.2434L1250.3844 617.64966L1253.0563 617.64966L1253.0563 616.2434ZM1247.0563 615.96216L1249.775 615.96216L1249.775 614.50903L1247.0563 614.50903L1247.0563 615.96216ZM1249.775 617.64966L1249.775 616.2434L1247.0563 616.2434L1247.0563 617.64966L1249.775 617.64966ZM1264.775 622.71216Q1264.5875 622.57153 1264.8219 622.57153Q1265.8531 622.75903 1266.5563 623.1809Q1267.3063 623.64966 1267.3063 624.1184Q1267.3063 624.4934 1266.9781 624.4934Q1266.7438 624.4934 1266.5094 624.1184Q1265.9 623.1809 1264.775 622.71216ZM1261.3531 617.7434L1261.3531 617.46216L1263.9313 617.46216L1263.9313 616.52466L1261.6344 616.52466L1261.6344 616.2434L1263.9313 616.2434L1263.9313 615.3528L1261.025 615.3528L1261.025 615.07153L1263.9313 615.07153L1263.9313 613.6653L1264.7281 613.8059Q1265.1031 614.0403 1264.5406 614.13403L1264.5406 615.07153L1266.2281 615.07153L1266.8375 614.46216L1267.5875 615.02466Q1267.8688 615.25903 1267.5875 615.3528L1264.5406 615.3528L1264.5406 616.2434L1265.7125 616.2434L1266.2281 615.7278L1266.8844 616.19653Q1267.1656 616.4309 1266.8844 616.52466L1264.5406 616.52466L1264.5406 617.46216L1266.2281 617.46216L1266.8375 616.8528L1267.5875 617.4153Q1267.8688 617.64966 1267.5875 617.7434L1261.3531 617.7434ZM1259.2438 617.1809L1259.7594 617.1809L1260.3688 616.57153L1261.1188 617.13403Q1261.4 617.3684 1261.1188 617.46216L1259.2438 617.46216L1259.2438 619.1028Q1260.8844 619.57153 1260.8844 620.27466Q1260.8844 620.64966 1260.5563 620.64966Q1260.3219 620.64966 1260.1813 620.27466Q1259.8531 619.6653 1259.2438 619.33716L1259.2438 624.21216Q1258.6344 624.77466 1258.6344 624.25903L1258.6344 619.2434Q1257.6969 621.02466 1256.6188 622.0559Q1256.3375 622.2434 1256.4781 621.9153Q1258.0719 619.75903 1258.6344 617.46216L1256.7594 617.46216L1256.7594 617.1809L1258.6344 617.1809L1258.6344 615.21216Q1257.6031 615.4934 1256.7125 615.63403Q1256.525 615.5403 1256.7125 615.44653Q1258.6344 614.9309 1260.275 613.94653L1260.9781 614.3684Q1261.5406 614.7434 1260.6031 614.6028L1259.2438 615.02466L1259.2438 617.1809ZM1260.275 624.3528Q1262.1969 623.50903 1263.3688 622.4778L1263.9313 622.89966Q1264.4469 623.32153 1263.5094 623.1809Q1261.9625 624.02466 1260.3688 624.5403Q1260.0875 624.5403 1260.275 624.3528ZM1262.4781 618.77466L1262.4781 619.6653L1266.0875 619.6653L1266.0875 618.77466L1262.4781 618.77466ZM1262.4781 622.0559L1266.0875 622.0559L1266.0875 621.07153L1262.4781 621.07153L1262.4781 622.0559ZM1262.4781 619.94653L1262.4781 620.7903L1266.0875 620.7903L1266.0875 619.94653L1262.4781 619.94653ZM1266.0875 622.33716L1262.4781 622.33716L1262.4781 622.6184Q1261.8688 623.1809 1261.8688 622.6653L1261.8688 618.07153L1262.5719 618.4934L1265.9469 618.4934L1266.2281 618.1184L1266.8844 618.58716Q1267.1656 618.82153 1266.6969 618.9153L1266.6969 622.4309Q1266.0875 622.9934 1266.0875 622.4778L1266.0875 622.33716ZM1271.7125 617.2278L1271.0094 617.2278L1271.0094 618.25903Q1271.0094 619.71216 1269.6031 620.4153L1269.6031 621.1184L1273.1656 621.1184L1273.1656 619.71216L1272.275 619.71216Q1271.7125 619.71216 1271.7125 619.14966L1271.7125 617.2278ZM1273.1656 619.2434L1273.1656 617.2278L1272.2281 617.2278L1272.2281 619.0559Q1272.2281 619.2434 1272.4156 619.2434L1273.1656 619.2434ZM1270.4938 617.2278L1269.6031 617.2278L1269.6031 620.13403Q1270.4 619.75903 1270.4938 618.25903L1270.4938 617.2278ZM1271.7125 614.83716L1271.0094 614.83716L1271.0094 616.94653L1271.7125 616.94653L1271.7125 614.83716ZM1268.7125 614.5559L1272.8844 614.5559L1273.4938 613.94653L1274.2438 614.50903Q1274.525 614.7434 1274.2438 614.83716L1272.2281 614.83716L1272.2281 616.94653L1273.025 616.94653L1273.3063 616.57153L1273.9625 617.0403Q1274.2438 617.27466 1273.775 617.3684L1273.775 623.7434Q1273.1656 624.3059 1273.1656 623.7903L1273.1656 623.32153L1269.6031 623.32153L1269.6031 623.9309Q1268.9938 624.4934 1268.9938 623.9778L1268.9938 616.4778L1269.6969 616.94653L1270.4938 616.94653L1270.4938 614.83716L1268.7125 614.83716L1268.7125 614.5559ZM1269.6031 623.0403L1273.1656 623.0403L1273.1656 621.39966L1269.6031 621.39966L1269.6031 623.0403ZM1275.4156 622.94653Q1275.4156 623.13403 1275.6031 623.13403L1278.4156 623.13403Q1278.8844 623.13403 1278.9313 622.8059L1279.2125 621.3528Q1279.3063 621.25903 1279.3531 621.3528L1279.3531 622.8059Q1279.3531 623.0403 1279.5406 623.13403Q1279.8688 623.27466 1279.5406 623.5559Q1279.4 623.69653 1278.6969 623.69653L1275.3688 623.69653Q1274.8063 623.69653 1274.8063 623.13403L1274.8063 617.9778L1275.5094 618.39966L1278.0875 618.39966L1278.0875 614.83716L1274.9469 614.83716L1274.9469 614.5559L1277.9469 614.5559L1278.2281 614.1809L1278.8844 614.64966Q1279.1656 614.88403 1278.6969 614.9778L1278.6969 619.2434Q1278.0875 619.8059 1278.0875 619.2903L1278.0875 618.6809L1275.4156 618.6809L1275.4156 622.94653ZM1281.8375 614.64966Q1281.6969 614.46216 1281.9313 614.50903Q1284.0875 615.6809 1284.0875 616.94653Q1284.0875 617.46216 1283.7594 617.46216Q1283.4313 617.46216 1283.3375 616.8528Q1282.9156 615.63403 1281.8375 614.64966ZM1287.6031 617.64966Q1287.3219 617.7903 1287.4625 617.46216Q1288.4469 615.9153 1289.2438 614.32153L1290.1813 614.9778Q1290.65 615.39966 1289.6656 615.25903L1287.6031 617.64966ZM1290.0406 623.88403Q1289.4313 624.44653 1289.4313 623.9309L1289.4313 623.27466L1282.025 623.27466L1282.025 622.9934L1289.4313 622.9934L1289.4313 620.69653L1282.025 620.69653L1282.025 620.4153L1289.4313 620.4153L1289.4313 618.39966L1281.8844 618.39966L1281.8844 618.1184L1285.775 618.1184L1285.775 613.75903L1286.5719 613.89966Q1286.9469 614.13403 1286.3844 614.2278L1286.3844 618.1184L1289.2906 618.1184L1289.5719 617.7434L1290.2281 618.21216Q1290.5094 618.44653 1290.0406 618.5403L1290.0406 623.88403ZM1297.4469 613.8059Q1295.2906 615.9153 1295.2906 619.00903Q1295.2906 622.1028 1297.4469 624.21216L1297.2125 624.44653Q1294.6344 622.2903 1294.6344 619.00903Q1294.6344 615.7278 1297.2125 613.57153L1297.4469 613.8059ZM1304.4313 617.6028L1304.3375 619.6184L1306.6813 619.6184L1306.775 617.6028L1304.4313 617.6028ZM1307.2906 619.89966Q1307.1969 621.3528 1307.0563 622.33716L1307.8063 622.33716L1308.4156 621.7278L1309.2125 622.2903Q1309.4938 622.52466 1309.2125 622.6184L1307.0094 622.6184Q1306.9625 623.08716 1306.8688 623.3684Q1306.775 623.7434 1306.4469 624.07153Q1306.1656 624.3059 1305.8844 624.3059Q1305.6969 624.3059 1305.6969 624.1184Q1305.6969 623.9309 1305.4156 623.7903L1304.8063 623.5559Q1304.6188 623.3684 1304.9 623.3684L1305.65 623.50903Q1306.1656 623.6028 1306.3063 623.0403L1306.4 622.6184L1301.0094 622.6184L1300.8219 623.7903Q1300.2125 624.25903 1300.2125 623.83716L1300.775 619.89966L1298.9938 619.89966L1298.9938 619.6184L1300.8219 619.6184L1301.15 616.8528L1301.7594 617.32153L1306.6813 617.32153L1306.9156 616.94653L1307.7594 617.50903Q1308.0406 617.83716 1307.3844 617.83716L1307.2906 619.6184L1307.9938 619.6184L1308.65 618.96216L1309.4938 619.57153Q1309.775 619.8059 1309.4938 619.89966L1307.2906 619.89966ZM1306.4469 622.33716Q1306.5875 621.39966 1306.6813 619.89966L1304.2906 619.89966L1304.0563 622.33716L1306.4469 622.33716ZM1303.7281 619.6184L1303.8219 617.6028L1301.6656 617.6028L1301.4313 619.6184L1303.7281 619.6184ZM1303.4469 622.33716L1303.6813 619.89966L1301.3844 619.89966L1301.0563 622.33716L1303.4469 622.33716ZM1301.3844 615.77466Q1300.5406 617.08716 1299.1344 618.21216Q1298.8063 618.3059 1298.9938 618.02466Q1300.6344 616.2903 1301.7594 613.6653L1302.6969 614.13403Q1302.9313 614.3684 1302.2281 614.4153Q1301.9 614.9778 1301.5719 615.4934L1307.2438 615.4934L1307.9 614.83716L1308.7438 615.44653Q1309.025 615.6809 1308.7438 615.77466L1301.3844 615.77466ZM1316.0094 620.7903L1311.0406 620.7903L1311.0406 620.50903L1312.7281 620.50903L1312.7281 617.4153L1313.4313 617.88403L1316.0094 617.88403L1316.0094 615.58716L1313.3375 615.58716Q1312.3531 617.6028 1310.6656 618.8684Q1310.4781 618.9153 1310.5719 618.7278Q1312.6813 616.4309 1313.2438 613.75903L1314.1344 614.08716Q1314.7438 614.3684 1313.8531 614.46216Q1313.6656 614.88403 1313.4781 615.3059L1319.3844 615.3059L1319.9938 614.69653L1320.7438 615.25903Q1321.025 615.4934 1320.7438 615.58716L1316.6188 615.58716L1316.6188 617.88403L1318.9625 617.88403L1319.5719 617.27466L1320.3219 617.83716Q1320.6031 618.07153 1320.3219 618.1653L1316.6188 618.1653L1316.6188 620.50903L1319.9938 620.50903L1320.6969 619.8059L1321.5875 620.46216Q1321.8688 620.69653 1321.5875 620.7903L1316.6188 620.7903L1316.6188 624.1653Q1316.0094 624.7278 1316.0094 624.21216L1316.0094 620.7903ZM1313.3375 618.1653L1313.3375 620.50903L1316.0094 620.50903L1316.0094 618.1653L1313.3375 618.1653Z" fill-rule="nonzero"/><path fill="#757575" d="M1326.4156 623.32153L1325.3375 623.32153L1325.3375 616.1028L1323.15 616.89966L1323.15 615.9153L1326.2594 614.7434L1326.4156 614.7434L1326.4156 623.32153ZM1330.1813 624.0559L1329.2594 624.0559L1332.8219 614.7903L1333.7438 614.7903L1330.1813 624.0559ZM1338.4156 623.32153L1337.3375 623.32153L1337.3375 616.1028L1335.15 616.89966L1335.15 615.9153L1338.2594 614.7434L1338.4156 614.7434L1338.4156 623.32153Z" fill-rule="nonzero"/><path fill="#757575" d="M1348.5094 622.14966Q1349.2594 622.14966 1349.9625 622.14966Q1350.7125 622.14966 1351.1344 621.96216Q1351.6031 621.77466 1351.8844 622.2434Q1352.0719 622.57153 1351.65 622.6184Q1351.275 622.6653 1350.525 622.6653Q1349.5875 622.6653 1348.65 622.6653Q1347.15 622.6653 1346.5406 622.0559Q1345.9313 621.44653 1345.9313 620.5559Q1345.9313 620.27466 1345.9781 619.8059Q1346.0719 619.6184 1346.1656 619.8059Q1346.2125 621.1184 1346.6344 621.5403Q1347.2438 622.14966 1348.5094 622.14966ZM1350.6656 616.33716Q1349.1188 616.33716 1347.4313 617.88403Q1347.2438 618.02466 1347.2906 617.7903Q1347.8063 617.0403 1348.6031 616.52466Q1348.7906 616.38403 1348.5563 616.38403Q1347.0563 616.4778 1346.1656 615.9153Q1345.9313 615.7278 1346.2594 615.77466Q1347.0563 615.96216 1347.6188 615.96216Q1348.9313 615.96216 1350.1969 615.6809Q1350.7594 615.5403 1350.9469 615.8684Q1351.2281 616.33716 1350.6656 616.33716ZM1344.3375 619.0559Q1344.5719 619.00903 1344.4781 619.19653Q1344.1031 619.94653 1343.775 621.39966Q1343.5875 622.19653 1343.775 622.71216Q1344.0094 623.3684 1343.9156 623.6028Q1343.775 623.88403 1343.4938 623.69653Q1342.6031 623.08716 1342.6031 620.50903Q1342.6031 618.77466 1343.1188 616.4309Q1343.2125 616.00903 1343.2125 615.39966Q1343.2125 614.7903 1342.7438 614.64966Q1342.5094 614.46216 1342.8375 614.46216Q1343.5406 614.64966 1343.9156 615.25903Q1344.0094 615.39966 1343.9156 615.6809Q1343.3531 617.32153 1343.2594 617.7903Q1342.9781 619.00903 1342.9781 619.94653Q1342.9781 620.88403 1343.1188 621.44653Q1343.2125 621.58716 1343.3063 621.44653Q1343.8219 619.8528 1344.3375 619.0559ZM1363.2125 618.4934Q1363.4938 618.7278 1363.2125 618.82153L1352.9 618.82153L1352.9 618.5403L1361.6188 618.5403L1362.3219 617.83716L1363.2125 618.4934ZM1367.4781 619.00903Q1365.9313 619.52466 1364.8063 619.6653Q1364.4313 619.6653 1364.6656 619.4778Q1368.1813 618.63403 1369.8219 617.27466Q1368.7438 616.57153 1367.9469 615.39966L1365.3219 615.39966L1365.3219 615.1184L1369.6344 615.1184L1369.6344 613.38403L1370.4313 613.52466Q1370.8063 613.75903 1370.2438 613.8528L1370.2438 615.1184L1373.4781 615.1184L1374.1813 614.4153L1375.0719 615.07153Q1375.3531 615.3059 1375.0719 615.39966L1372.6344 615.39966Q1371.6031 616.57153 1370.5719 617.32153Q1372.5406 618.25903 1375.5875 618.58716Q1375.1188 618.82153 1374.8375 619.2434Q1373.8063 619.0559 1372.8688 618.7278L1372.8688 623.9309Q1372.2594 624.4934 1372.2594 623.9778L1372.2594 621.8684L1367.9469 621.8684Q1367.6188 623.2278 1365.9781 624.3059Q1365.7438 624.39966 1365.8375 624.1653Q1367.4781 622.8059 1367.4781 620.88403L1367.4781 619.00903ZM1368.0875 620.08716Q1368.0875 621.1184 1367.9938 621.58716L1372.2594 621.58716L1372.2594 620.08716L1368.0875 620.08716ZM1368.3219 615.39966Q1369.025 616.38403 1370.15 617.0403Q1371.0875 616.33716 1371.7438 615.39966L1368.3219 615.39966ZM1370.2438 617.5559Q1369.1656 618.3528 1368.0875 618.77466L1368.0875 619.8059L1372.2594 619.8059L1372.2594 618.4934Q1371.1344 618.1653 1370.2438 617.5559ZM1379.7125 617.2278L1379.0094 617.2278L1379.0094 618.25903Q1379.0094 619.71216 1377.6031 620.4153L1377.6031 621.1184L1381.1656 621.1184L1381.1656 619.71216L1380.275 619.71216Q1379.7125 619.71216 1379.7125 619.14966L1379.7125 617.2278ZM1381.1656 619.2434L1381.1656 617.2278L1380.2281 617.2278L1380.2281 619.0559Q1380.2281 619.2434 1380.4156 619.2434L1381.1656 619.2434ZM1378.4938 617.2278L1377.6031 617.2278L1377.6031 620.13403Q1378.4 619.75903 1378.4938 618.25903L1378.4938 617.2278ZM1379.7125 614.83716L1379.0094 614.83716L1379.0094 616.94653L1379.7125 616.94653L1379.7125 614.83716ZM1376.7125 614.5559L1380.8844 614.5559L1381.4938 613.94653L1382.2438 614.50903Q1382.525 614.7434 1382.2438 614.83716L1380.2281 614.83716L1380.2281 616.94653L1381.025 616.94653L1381.3063 616.57153L1381.9625 617.0403Q1382.2438 617.27466 1381.775 617.3684L1381.775 623.7434Q1381.1656 624.3059 1381.1656 623.7903L1381.1656 623.32153L1377.6031 623.32153L1377.6031 623.9309Q1376.9938 624.4934 1376.9938 623.9778L1376.9938 616.4778L1377.6969 616.94653L1378.4938 616.94653L1378.4938 614.83716L1376.7125 614.83716L1376.7125 614.5559ZM1377.6031 623.0403L1381.1656 623.0403L1381.1656 621.39966L1377.6031 621.39966L1377.6031 623.0403ZM1383.4156 622.94653Q1383.4156 623.13403 1383.6031 623.13403L1386.4156 623.13403Q1386.8844 623.13403 1386.9313 622.8059L1387.2125 621.3528Q1387.3063 621.25903 1387.3531 621.3528L1387.3531 622.8059Q1387.3531 623.0403 1387.5406 623.13403Q1387.8688 623.27466 1387.5406 623.5559Q1387.4 623.69653 1386.6969 623.69653L1383.3688 623.69653Q1382.8063 623.69653 1382.8063 623.13403L1382.8063 617.9778L1383.5094 618.39966L1386.0875 618.39966L1386.0875 614.83716L1382.9469 614.83716L1382.9469 614.5559L1385.9469 614.5559L1386.2281 614.1809L1386.8844 614.64966Q1387.1656 614.88403 1386.6969 614.9778L1386.6969 619.2434Q1386.0875 619.8059 1386.0875 619.2903L1386.0875 618.6809L1383.4156 618.6809L1383.4156 622.94653ZM1388.525 621.4934Q1388.2906 621.4934 1388.4313 621.3059Q1391.0563 619.38403 1392.5094 616.14966L1388.7125 616.14966L1388.7125 615.8684L1392.6031 615.8684Q1393.0719 614.83716 1393.3531 613.6653L1394.1969 614.0403Q1394.6188 614.2278 1393.8688 614.46216Q1393.5875 615.21216 1393.2594 615.8684L1397.7594 615.8684L1398.4625 615.1653L1399.3063 615.82153Q1399.5875 616.0559 1399.3063 616.14966L1393.1188 616.14966Q1392.6969 617.08716 1392.0875 617.9778L1392.3219 618.3059L1394.4313 618.3059L1394.4313 616.6653L1395.2281 616.8059Q1395.6031 617.0403 1395.0406 617.13403L1395.0406 618.3059L1397.4313 618.3059L1397.7125 617.9309L1398.3688 618.39966Q1398.65 618.63403 1398.1813 618.7278L1398.1813 622.38403Q1398.1813 622.89966 1397.8531 623.1809Q1397.6656 623.3684 1397.3844 623.3684Q1397.1969 623.3684 1397.1969 623.1809Q1397.1969 622.94653 1396.9156 622.8528L1396.3063 622.71216Q1396.1188 622.6184 1396.3063 622.52466L1397.2438 622.52466Q1397.5719 622.52466 1397.5719 622.19653L1397.5719 618.58716L1395.0406 618.58716L1395.0406 623.9309Q1394.4313 624.4934 1394.4313 623.9778L1394.4313 618.58716L1392.2281 618.58716L1392.2281 623.32153Q1391.6188 623.88403 1391.6188 623.3684L1391.6188 618.7278Q1390.3063 620.4153 1388.525 621.4934ZM1401.0406 613.57153Q1403.6188 615.7278 1403.6188 619.00903Q1403.6188 622.2903 1401.0406 624.44653L1400.8063 624.21216Q1402.9625 622.1028 1402.9625 619.00903Q1402.9625 615.9153 1400.8063 613.8059L1401.0406 613.57153Z" fill-rule="nonzero"/><path fill="#9e9e9e" d="M1378.1188 632.7903L1378.1188 633.69653L1377.9156 633.69653Q1376.65 633.7278 1375.9 634.46216Q1375.15 635.1809 1375.025 636.4934Q1375.7125 635.7278 1376.8688 635.7278Q1377.9781 635.7278 1378.65 636.50903Q1379.3219 637.2903 1379.3219 638.5403Q1379.3219 639.8528 1378.6031 640.64966Q1377.8844 641.44653 1376.6656 641.44653Q1375.4469 641.44653 1374.6813 640.50903Q1373.9313 639.5559 1373.9313 638.07153L1373.9313 637.6653Q1373.9313 635.3059 1374.9313 634.0559Q1375.9313 632.8059 1377.9156 632.7903L1378.1188 632.7903ZM1376.6969 636.63403Q1376.1344 636.63403 1375.6656 636.96216Q1375.1969 637.2903 1375.0094 637.8059L1375.0094 638.19653Q1375.0094 639.25903 1375.4781 639.89966Q1375.9625 640.5403 1376.6656 640.5403Q1377.4 640.5403 1377.8219 640.00903Q1378.2438 639.46216 1378.2438 638.58716Q1378.2438 637.71216 1377.8219 637.1809Q1377.4 636.63403 1376.6969 636.63403ZM1385.4313 638.46216L1386.6188 638.46216L1386.6188 639.33716L1385.4313 639.33716L1385.4313 641.32153L1384.3531 641.32153L1384.3531 639.33716L1380.4625 639.33716L1380.4625 638.69653L1384.275 632.7903L1385.4313 632.7903L1385.4313 638.46216ZM1381.6969 638.46216L1384.3531 638.46216L1384.3531 634.27466L1384.2125 634.50903L1381.6969 638.46216ZM1387.9938 640.75903Q1387.9938 640.4778 1388.15 640.2903Q1388.3219 640.1028 1388.65 640.1028Q1388.9938 640.1028 1389.1656 640.2903Q1389.3375 640.4778 1389.3375 640.75903Q1389.3375 641.02466 1389.1656 641.21216Q1388.9938 641.38403 1388.65 641.38403Q1388.3219 641.38403 1388.15 641.21216Q1387.9938 641.02466 1387.9938 640.75903ZM1396.2125 637.6809Q1396.2125 639.58716 1395.5563 640.52466Q1394.9156 641.44653 1393.525 641.44653Q1392.1656 641.44653 1391.5094 640.5403Q1390.8531 639.63403 1390.8219 637.82153L1390.8219 636.38403Q1390.8219 634.4934 1391.4625 633.58716Q1392.1188 632.6653 1393.5094 632.6653Q1394.8844 632.6653 1395.5406 633.5559Q1396.1969 634.4309 1396.2125 636.27466L1396.2125 637.6809ZM1395.1188 636.19653Q1395.1188 634.82153 1394.7281 634.19653Q1394.3531 633.5559 1393.5094 633.5559Q1392.6813 633.5559 1392.2906 634.19653Q1391.9156 634.82153 1391.9156 636.1184L1391.9156 637.8528Q1391.9156 639.2278 1392.3063 639.89966Q1392.7125 640.5559 1393.525 640.5559Q1394.3219 640.5559 1394.7125 639.9309Q1395.1031 639.3059 1395.1188 637.9778L1395.1188 636.19653ZM1397.7594 634.4309Q1397.7594 633.6653 1398.2438 633.1653Q1398.7438 632.6653 1399.5094 632.6653Q1400.2906 632.6653 1400.775 633.1653Q1401.2594 633.6653 1401.2594 634.46216L1401.2594 634.88403Q1401.2594 635.64966 1400.7594 636.14966Q1400.275 636.63403 1399.525 636.63403Q1398.7594 636.63403 1398.2594 636.14966Q1397.7594 635.64966 1397.7594 634.83716L1397.7594 634.4309ZM1398.5719 634.88403Q1398.5719 635.33716 1398.8219 635.63403Q1399.0875 635.9309 1399.525 635.9309Q1399.9469 635.9309 1400.1969 635.64966Q1400.4469 635.3528 1400.4469 634.8528L1400.4469 634.4309Q1400.4469 633.9778 1400.1969 633.6809Q1399.9469 633.3684 1399.5094 633.3684Q1399.0719 633.3684 1398.8219 633.6809Q1398.5719 633.9778 1398.5719 634.44653L1398.5719 634.88403ZM1401.9156 639.2278Q1401.9156 638.46216 1402.4 637.9778Q1402.9 637.4778 1403.6656 637.4778Q1404.4313 637.4778 1404.9156 637.9778Q1405.4156 638.46216 1405.4156 639.27466L1405.4156 639.6809Q1405.4156 640.44653 1404.9313 640.94653Q1404.4469 641.44653 1403.6813 641.44653Q1402.9156 641.44653 1402.4156 640.96216Q1401.9156 640.46216 1401.9156 639.64966L1401.9156 639.2278ZM1402.7281 639.6809Q1402.7281 640.14966 1402.9781 640.44653Q1403.2438 640.7434 1403.6813 640.7434Q1404.1031 640.7434 1404.3531 640.46216Q1404.6031 640.1653 1404.6031 639.6653L1404.6031 639.2278Q1404.6031 638.75903 1404.3375 638.4778Q1404.0875 638.1809 1403.6656 638.1809Q1403.2438 638.1809 1402.9781 638.4778Q1402.7281 638.75903 1402.7281 639.25903L1402.7281 639.6809ZM1399.775 640.6809L1399.15 640.2903L1403.3219 633.6184L1403.9313 634.00903L1399.775 640.6809Z" fill-rule="nonzero"/><path stroke="#757575" stroke-width="1.0" stroke-linecap="butt" d="M1406.15 627.82153L1108.2 627.82153L1049.3059 627.82153" fill-rule="nonzero"/><path fill="#9e9e9e" d="M1051.3059 627.82153C1051.3059 626.7169 1050.4105 625.82153 1049.3059 625.82153C1048.2014 625.82153 1047.3059 626.7169 1047.3059 627.82153C1047.3059 628.9261 1048.2014 629.82153 1049.3059 629.82153C1050.4105 629.82153 1051.3059 628.9261 1051.3059 627.82153" fill-rule="nonzero"/><path fill="#757575" d="M61.25625 51.271873Q61.88125 51.271873 62.271873 50.88125Q62.740623 50.4125 62.740623 49.7875Q62.740623 49.1625 62.271873 48.69375Q61.88125 48.303123 61.25625 48.303123Q60.63125 48.303123 60.240623 48.69375Q59.771873 49.1625 59.771873 49.7875Q59.771873 50.4125 60.240623 50.88125Q60.63125 51.271873 61.25625 51.271873ZM61.25625 51.740623Q60.396873 51.740623 59.85 51.19375Q59.303123 50.646873 59.303123 49.7875Q59.303123 48.928123 59.85 48.38125Q60.396873 47.834373 61.25625 47.834373Q62.115623 47.834373 62.6625 48.38125Q63.209373 48.928123 63.209373 49.7875Q63.209373 50.646873 62.6625 51.19375Q62.115623 51.740623 61.25625 51.740623ZM58.678123 53.06875Q55.240623 61.740623 47.35 64.00625Q46.88125 64.00625 47.19375 63.615623Q54.5375 61.0375 57.584373 52.44375Q57.740623 51.975 57.35 51.975Q55.63125 52.13125 48.521873 52.990623Q48.209373 53.06875 47.81875 53.38125Q47.740623 53.615623 47.50625 53.615623Q47.271873 53.615623 46.490623 52.9125Q45.865623 52.365623 45.7875 51.740623Q45.7875 51.35 46.1 51.6625Q46.4125 52.209373 47.428123 52.209373Q48.053123 52.209373 56.725 51.50625Q57.6625 51.35 57.896873 50.803123Q58.834373 51.271873 59.459373 51.896873Q59.85 52.2875 59.85 52.521873Q59.85 52.75625 59.303123 52.75625Q58.75625 52.75625 58.678123 53.06875ZM66.58437 64.63125Q73.06875 61.19375 76.11562 54.00625Q67.6 54.7875 67.13125 55.1Q66.81875 55.4125 66.50625 55.4125Q66.19375 55.4125 65.4125 54.709373Q64.70937 54.084373 64.70937 53.459373Q64.70937 53.06875 65.02187 53.38125Q65.4125 54.084373 66.42812 54.084373Q68.38125 54.084373 75.80312 53.38125Q76.27187 53.225 76.58437 52.834373Q77.36562 53.38125 77.75625 53.69375Q78.14687 54.00625 78.14687 54.240623Q78.14687 54.63125 77.2875 54.553123Q73.77187 61.975 66.81875 64.94375Q66.35 64.94375 66.58437 64.63125ZM68.225 49.865623Q70.17812 49.865623 74.31875 49.553123Q74.70937 49.240623 75.25625 49.00625Q76.27187 49.31875 76.81875 49.7875Q77.13125 50.021873 77.13125 50.25625Q77.13125 50.4125 76.50625 50.334373Q74.31875 49.94375 68.61562 50.803123Q68.14687 51.19375 67.9125 51.19375Q67.52187 51.19375 66.89687 50.646873Q66.11562 49.94375 66.11562 49.240623Q66.11562 48.85 66.42812 49.1625Q66.58437 49.865623 68.225 49.865623ZM82.6 58.615623Q82.20937 58.615623 82.05312 58.225Q81.74062 57.365623 81.50625 57.053123Q81.0375 56.35 80.02187 55.646873Q79.86562 55.490623 80.1 55.4125Q80.725 55.56875 81.50625 56.0375Q82.13125 56.428123 82.52187 56.81875Q83.14687 57.44375 83.06875 57.990623Q82.99062 58.615623 82.6 58.615623ZM86.50625 56.584373Q86.50625 57.13125 86.0375 57.13125Q85.64687 57.13125 85.49062 56.740623Q85.02187 55.646873 84.63125 55.178123Q84.24062 54.7875 83.38125 54.240623Q83.14687 54.00625 83.45937 54.00625Q84.39687 54.1625 85.33437 54.7875Q86.50625 55.56875 86.50625 56.584373ZM90.17812 54.1625Q90.88125 54.240623 91.35 54.553123Q92.44375 55.25625 92.44375 55.725Q92.44375 55.88125 92.05312 55.88125Q91.6625 55.88125 91.42812 56.428123Q88.30312 63.06875 81.0375 65.4125Q80.56875 65.4125 80.88125 65.02187Q88.38125 61.975 90.64687 55.25625Q90.80312 54.7875 90.02187 54.396873Q89.70937 54.240623 90.17812 54.1625ZM97.9125 54.94375Q98.85 55.021873 100.4125 55.4125Q102.2875 55.959373 103.38125 56.81875Q104.55312 57.75625 104.55312 58.38125Q104.55312 59.084373 104.00625 59.084373Q103.69375 59.084373 103.14687 58.38125Q101.58437 56.35 97.9125 55.25625Q97.9125 62.6 97.9125 63.928123Q97.9125 64.7875 97.52187 64.7875Q97.05312 64.7875 96.74062 64.08437Q96.50625 63.5375 96.81875 62.521873Q97.05312 59.865623 96.975 50.56875Q96.975 49.7875 96.74062 49.396873Q96.50625 49.084373 95.64687 49.00625Q95.33437 48.85 95.64687 48.69375Q96.19375 48.5375 97.13125 48.771873Q97.75625 49.00625 98.225 49.31875Q98.69375 49.63125 98.69375 49.94375Q98.69375 50.178123 98.38125 50.25625Q98.06875 50.334373 98.06875 50.646873Q97.83437 52.678123 97.9125 54.94375ZM118.6625 51.428123Q117.02187 51.584373 110.77187 52.44375Q109.20937 52.678123 108.89687 52.990623Q108.81875 53.225 108.58437 53.225Q108.35 53.225 107.56875 52.521873Q106.94375 51.975 106.86562 51.35Q106.86562 50.959373 107.17812 51.271873Q107.49062 51.81875 108.50625 51.81875Q109.83437 51.81875 118.35 50.88125Q118.975 50.803123 119.2875 50.25625Q120.06875 50.725 120.85 51.35Q121.24062 51.6625 121.24062 51.896873Q121.24062 52.209373 120.69375 52.209373Q120.14687 52.209373 119.99062 52.521873Q116.7875 60.490623 108.19375 63.5375Q107.80312 63.5375 108.0375 63.225Q116.31875 59.63125 118.975 51.896873Q119.20937 51.35 118.6625 51.428123ZM130.58438 52.053123Q131.6 51.975 132.38126 52.521873Q132.85 52.834373 132.85 53.06875Q132.85 53.225 132.69376 53.303123Q132.38126 53.5375 132.38126 53.928123Q132.38126 54.865623 132.38126 55.803123Q134.1 55.725 135.81876 55.646873Q136.05313 55.56875 136.44376 55.25625Q137.06876 55.490623 137.69376 55.959373Q138.00626 56.19375 138.00626 56.50625Q138.00626 56.6625 137.45938 56.584373Q136.6 56.428123 135.35 56.35Q133.86563 56.35 132.38126 56.35Q132.38126 58.85 132.38126 61.35Q132.5375 62.75625 132.5375 63.5375Q132.5375 64.24062 131.99063 64.70937Q131.6 65.02187 131.36563 65.02187Q131.13126 65.02187 131.05313 64.55312Q131.13126 64.24062 128.70938 62.365623Q128.31876 61.896873 128.86563 62.13125Q129.80313 62.678123 131.13126 63.38125Q131.44376 63.5375 131.52188 63.146873Q131.52188 60.334373 131.52188 57.521873Q128.7875 61.50625 123.39687 64.1625Q123.08437 64.1625 123.24062 63.85Q128.70938 60.725 131.05313 56.35Q129.1 56.584373 127.30312 56.81875Q126.67812 56.896873 126.2875 57.209373Q126.20937 57.2875 125.89687 57.2875Q125.6625 57.2875 125.42812 57.13125Q124.80312 56.6625 124.4125 55.88125Q124.4125 55.490623 124.725 55.725Q125.27187 56.19375 126.05312 56.19375Q128.1625 56.19375 131.52188 55.803123Q131.52188 54.7875 131.52188 53.38125Q131.52188 52.990623 131.2875 52.75625Q131.05313 52.521873 130.58438 52.44375Q130.11563 52.365623 130.58438 52.053123ZM154.94376 56.6625Q151.50626 56.584373 148.77188 56.6625Q146.58438 56.740623 144.08438 56.896873Q142.67813 56.975 142.52188 57.13125Q142.20938 57.44375 141.975 57.44375Q141.89688 57.44375 141.42813 56.975Q140.88126 56.428123 140.64688 55.959373Q140.25626 55.178123 140.33438 54.475Q140.49063 54.1625 140.64688 54.396873Q141.0375 55.490623 141.50626 55.725Q141.975 55.959373 142.75626 55.959373Q145.1 55.959373 149.08438 55.88125Q153.06876 55.803123 154.08438 55.725Q154.94376 55.646873 155.1 55.490623Q155.33438 55.25625 155.56876 55.25625Q156.27188 55.25625 156.81876 55.803123Q157.36563 56.35 157.36563 56.428123Q157.52188 56.896873 156.89688 56.81875Q155.88126 56.6625 154.94376 56.6625ZM163.38126 60.803123Q165.02188 57.834373 167.05313 51.584373Q167.13126 50.725 166.81876 50.334373Q166.58438 50.021873 165.95938 49.709373Q165.725 49.553123 166.11563 49.475Q167.05313 49.553123 167.9125 50.25625Q168.30313 50.56875 168.85 51.271873Q169.1625 51.6625 168.69376 51.740623Q168.30313 51.81875 167.99063 52.6Q166.27188 57.053123 164.00626 60.725Q168.85 60.1 172.6 59.240623Q171.35 57.209373 169.24063 55.4125Q169.00626 55.1 169.475 55.178123Q171.42813 56.50625 172.52188 57.6Q175.02188 60.1 175.02188 61.6625Q175.02188 62.365623 174.86563 62.521873Q174.63126 62.75625 174.31876 62.678123Q173.92813 62.6 173.77188 61.81875Q173.5375 60.725 172.9125 59.709373Q167.75626 61.115623 161.975 62.2875Q161.6625 63.06875 161.11563 62.6Q160.56876 62.13125 160.17813 61.50625Q159.7875 60.88125 159.86563 60.25625Q160.02188 59.94375 160.17813 60.25625Q160.4125 61.0375 161.35 60.959373Q162.67813 60.88125 163.38126 60.803123ZM182.80313 65.25625Q186.31876 63.146873 188.35 60.4125Q186.1625 57.365623 185.61563 51.115623L183.6625 51.115623L183.6625 50.646873L191.55313 50.646873L192.17813 50.021873L193.42813 50.959373Q194.2875 51.50625 192.80313 51.50625Q191.7875 57.053123 189.52188 60.334373Q191.24063 62.2875 194.9125 63.5375Q193.6625 63.771873 193.35 64.63125Q190.77188 63.303123 188.89688 61.115623Q187.02188 63.5375 183.0375 65.49062Q182.64688 65.56875 182.80313 65.25625ZM188.89688 59.63125Q190.77188 56.584373 191.70938 51.115623L186.00626 51.115623Q186.7875 56.740623 188.89688 59.63125ZM181.7875 59.1625L181.7875 48.06875L183.19376 48.303123Q184.05313 48.459373 182.80313 48.928123L182.80313 64.63125Q181.7875 65.56875 181.7875 64.70937L181.7875 59.63125L177.95938 61.6625Q177.95938 62.678123 177.4125 61.975L176.63126 60.88125L178.0375 60.4125L178.0375 50.334373L179.44376 50.56875Q180.30313 50.725 179.05313 51.19375L179.05313 60.1L181.7875 59.1625ZM200.77188 48.06875Q203.42813 49.1625 203.42813 50.646873Q203.42813 51.35 202.88126 51.35Q202.49063 51.35 201.94376 49.7875Q201.70938 49.084373 200.69376 48.303123Q200.45938 48.06875 200.77188 48.06875ZM209.52188 58.459373L209.99063 57.834373L211.08438 58.615623Q211.55313 59.00625 210.77188 59.1625L210.77188 64.475L212.17813 64.475L213.35 63.303123L214.83438 64.39687Q215.30313 64.7875 214.83438 64.94375L197.17813 64.94375L197.17813 64.475L200.30313 64.475L200.30313 57.834373L201.55313 58.459373L209.52188 58.459373ZM209.99063 48.303123Q210.77188 48.771873 209.75626 49.00625L207.49063 51.896873L211.63126 51.896873L212.64688 50.88125L213.89688 51.81875Q214.36563 52.209373 213.89688 52.365623L207.88126 52.365623Q209.36563 56.115623 214.75626 58.38125Q213.975 58.5375 213.19376 59.396873Q208.975 57.13125 207.4125 52.365623L203.74063 52.365623L204.20938 52.75625Q204.99063 53.38125 203.89688 53.459373Q200.61563 58.146873 196.94376 59.553123Q196.475 59.63125 196.7875 59.31875Q200.38126 57.2875 202.88126 52.365623L197.64688 52.365623L197.64688 51.896873L207.02188 51.896873L208.975 47.834373L209.99063 48.303123ZM203.35 58.928123L201.31876 58.928123L201.31876 64.475L203.35 64.475L203.35 58.928123ZM206.475 58.928123L204.36563 58.928123L204.36563 64.475L206.475 64.475L206.475 58.928123ZM207.49063 58.928123L207.49063 64.475L209.75626 64.475L209.75626 58.928123L207.49063 58.928123ZM224.44376 51.0375Q225.14688 51.428123 225.77188 52.053123Q226.31876 52.6 225.5375 52.75625Q223.58438 58.303123 221.70938 60.959373Q221.24063 61.6625 220.69376 62.053123Q219.83438 62.678123 219.52188 61.896873Q218.50626 61.584373 218.0375 60.725Q217.4125 59.63125 217.4125 58.146873Q217.4125 55.021873 219.36563 53.06875Q221.94376 50.490623 225.61563 50.490623Q229.52188 50.490623 231.70938 52.678123Q233.27188 54.240623 233.27188 56.584373Q233.27188 58.69375 231.7875 60.334373Q229.67813 62.678123 225.45938 63.38125Q225.14688 63.225 225.45938 63.06875Q228.975 62.209373 230.85 60.021873Q232.1 58.5375 232.1 56.50625Q232.1 54.396873 231.00626 53.146873Q228.81876 50.646873 224.44376 51.0375ZM220.77188 60.88125Q223.0375 57.44375 224.36563 52.521873Q224.6 51.584373 223.975 51.115623Q221.94376 51.428123 220.38126 52.990623Q218.35 55.021873 218.35 57.75625Q218.35 60.1 219.20938 60.959373Q219.6 61.35 219.99063 61.35Q220.30313 61.35 220.77188 60.88125ZM240.7875 53.69375L239.61563 53.69375L239.61563 55.4125Q239.61563 57.834373 237.27188 59.00625L237.27188 60.178123L243.20938 60.178123L243.20938 57.834373L241.725 57.834373Q240.7875 57.834373 240.7875 56.896873L240.7875 53.69375ZM243.20938 57.053123L243.20938 53.69375L241.64688 53.69375L241.64688 56.740623Q241.64688 57.053123 241.95938 57.053123L243.20938 57.053123ZM238.75626 53.69375L237.27188 53.69375L237.27188 58.5375Q238.6 57.9125 238.75626 55.4125L238.75626 53.69375ZM240.7875 49.709373L239.61563 49.709373L239.61563 53.225L240.7875 53.225L240.7875 49.709373ZM235.7875 49.240623L242.74063 49.240623L243.75626 48.225L245.00626 49.1625Q245.475 49.553123 245.00626 49.709373L241.64688 49.709373L241.64688 53.225L242.975 53.225L243.44376 52.6L244.5375 53.38125Q245.00626 53.771873 244.225 53.928123L244.225 64.55312Q243.20938 65.49062 243.20938 64.63125L243.20938 63.85L237.27188 63.85L237.27188 64.86562Q236.25626 65.80312 236.25626 64.94375L236.25626 52.44375L237.42813 53.225L238.75626 53.225L238.75626 49.709373L235.7875 49.709373L235.7875 49.240623ZM237.27188 63.38125L243.20938 63.38125L243.20938 60.646873L237.27188 60.646873L237.27188 63.38125ZM246.95938 63.225Q246.95938 63.5375 247.27188 63.5375L251.95938 63.5375Q252.74063 63.5375 252.81876 62.990623L253.2875 60.56875Q253.44376 60.4125 253.52188 60.56875L253.52188 62.990623Q253.52188 63.38125 253.83438 63.5375Q254.38126 63.771873 253.83438 64.24062Q253.6 64.475 252.42813 64.475L246.88126 64.475Q245.94376 64.475 245.94376 63.5375L245.94376 54.94375L247.11563 55.646873L251.4125 55.646873L251.4125 49.709373L246.17813 49.709373L246.17813 49.240623L251.17813 49.240623L251.64688 48.615623L252.74063 49.396873Q253.20938 49.7875 252.42813 49.94375L252.42813 57.053123Q251.4125 57.990623 251.4125 57.13125L251.4125 56.115623L246.95938 56.115623L246.95938 63.225ZM271.33438 56.740623Q271.725 57.365623 270.55313 57.13125Q270.24063 61.19375 269.61563 63.38125Q269.14688 65.1 267.19376 65.49062Q266.33438 65.725 266.33438 64.94375Q266.33438 64.475 265.63126 64.00625L264.69376 63.459373Q264.38126 63.146873 264.77188 63.146873L266.725 63.85Q267.35 64.08437 267.975 63.771873Q268.36563 63.615623 268.6 62.834373Q269.225 60.88125 269.45938 56.740623L264.225 56.740623Q263.67813 64.00625 256.33438 65.80312Q255.86563 65.80312 256.17813 65.49062Q262.50626 63.459373 263.13126 56.740623L259.45938 56.740623L259.45938 56.271873L269.30313 56.271873L270.00626 55.56875L271.33438 56.740623ZM262.74063 49.7875Q260.24063 54.865623 256.17813 57.44375Q255.70938 57.6 255.94376 57.13125Q260.00626 53.69375 261.88126 48.38125L263.52188 49.240623Q264.225 49.94375 262.74063 49.7875ZM266.80313 47.9125Q268.44376 52.678123 274.30313 55.334373Q273.36563 55.725 272.81876 56.428123Q268.99063 54.00625 266.02188 48.38125L266.80313 47.9125Z" fill-rule="nonzero"/></svg>